solid 
 facet normal  0.000000e+00  0.000000e+00 -1.000000e+00
   outer loop
     vertex  1.500000e+01  7.541009e+01  3.400000e+02
     vertex  4.796163e-14  4.350000e+02  3.400000e+02
     vertex  1.500000e+01  4.350000e+02  3.400000e+02
   endloop
 endfacet
 facet normal  0.000000e+00  0.000000e+00 -1.000000e+00
   outer loop
     vertex  1.500000e+01  7.541009e+01  3.400000e+02
     vertex  1.526091e+02  4.076278e+02  3.400000e+02
     vertex  1.803255e+02  3.961473e+02  3.400000e+02
   endloop
 endfacet
 facet normal  0.000000e+00  0.000000e+00 -1.000000e+00
   outer loop
     vertex  4.271639e+01  6.392959e+01  3.400000e+02
     vertex  1.500000e+01  7.541009e+01  3.400000e+02
     vertex  1.803255e+02  3.961473e+02  3.400000e+02
   endloop
 endfacet
 facet normal  0.000000e+00  0.000000e+00 -1.000000e+00
   outer loop
     vertex  6.392959e+01  4.271639e+01  3.400000e+02
     vertex  4.271639e+01  6.392959e+01  3.400000e+02
     vertex  2.969848e+02  3.181981e+02  3.400000e+02
   endloop
 endfacet
 facet normal  0.000000e+00  0.000000e+00 -1.000000e+00
   outer loop
     vertex  6.392959e+01  4.271639e+01  3.400000e+02
     vertex  2.969848e+02  3.181981e+02  3.400000e+02
     vertex  3.181981e+02  2.969848e+02  3.400000e+02
   endloop
 endfacet
 facet normal  0.000000e+00  0.000000e+00 -1.000000e+00
   outer loop
     vertex  7.541009e+01  1.500000e+01  3.400000e+02
     vertex  4.350000e+02  1.500000e+01  3.400000e+02
     vertex  4.350000e+02 -1.456613e-13  3.400000e+02
   endloop
 endfacet
 facet normal  0.000000e+00  0.000000e+00 -1.000000e+00
   outer loop
     vertex  7.541009e+01  1.500000e+01  3.400000e+02
     vertex  6.392959e+01  4.271639e+01  3.400000e+02
     vertex  3.961473e+02  1.803255e+02  3.400000e+02
   endloop
 endfacet
 facet normal  0.000000e+00  0.000000e+00 -1.000000e+00
   outer loop
     vertex  7.541009e+01  1.500000e+01  3.400000e+02
     vertex  3.961473e+02  1.803255e+02  3.400000e+02
     vertex  4.076278e+02  1.526091e+02  3.400000e+02
   endloop
 endfacet
 facet normal  0.000000e+00  0.000000e+00 -1.000000e+00
   outer loop
     vertex  5.967371e+00  3.000000e+01  3.400000e+02
     vertex  1.500000e+01  7.541009e+01  3.400000e+02
     vertex  4.271639e+01  6.392959e+01  3.400000e+02
   endloop
 endfacet
 facet normal  0.000000e+00  0.000000e+00 -1.000000e+00
   outer loop
     vertex  5.967371e+00  3.000000e+01  3.400000e+02
     vertex  4.271639e+01  6.392959e+01  3.400000e+02
     vertex  1.699363e+01  2.543277e+01  3.400000e+02
   endloop
 endfacet
 facet normal  0.000000e+00  0.000000e+00 -1.000000e+00
   outer loop
     vertex  3.552714e-15  3.000000e+01  3.400000e+02
     vertex  1.500000e+01  7.541009e+01  3.400000e+02
     vertex  5.967371e+00  3.000000e+01  3.400000e+02
   endloop
 endfacet
 facet normal  0.000000e+00  0.000000e+00 -1.000000e+00
   outer loop
     vertex  2.543277e+01  1.699363e+01  3.400000e+02
     vertex  4.271639e+01  6.392959e+01  3.400000e+02
     vertex  6.392959e+01  4.271639e+01  3.400000e+02
   endloop
 endfacet
 facet normal  0.000000e+00  0.000000e+00 -1.000000e+00
   outer loop
     vertex  2.543277e+01  1.699363e+01  3.400000e+02
     vertex  6.392959e+01  4.271639e+01  3.400000e+02
     vertex  7.541009e+01  1.500000e+01  3.400000e+02
   endloop
 endfacet
 facet normal  0.000000e+00  0.000000e+00 -1.000000e+00
   outer loop
     vertex  2.543277e+01  1.699363e+01  3.400000e+02
     vertex  1.699363e+01  2.543277e+01  3.400000e+02
     vertex  4.271639e+01  6.392959e+01  3.400000e+02
   endloop
 endfacet
 facet normal  0.000000e+00  0.000000e+00 -1.000000e+00
   outer loop
     vertex  3.000000e+01  5.967371e+00  3.400000e+02
     vertex  2.543277e+01  1.699363e+01  3.400000e+02
     vertex  7.541009e+01  1.500000e+01  3.400000e+02
   endloop
 endfacet
 facet normal  0.000000e+00  0.000000e+00 -1.000000e+00
   outer loop
     vertex  3.000000e+01 -1.065814e-14  3.400000e+02
     vertex  7.541009e+01  1.500000e+01  3.400000e+02
     vertex  4.350000e+02 -1.456613e-13  3.400000e+02
   endloop
 endfacet
 facet normal  0.000000e+00  0.000000e+00 -1.000000e+00
   outer loop
     vertex  3.000000e+01 -1.065814e-14  3.400000e+02
     vertex  3.000000e+01  5.967371e+00  3.400000e+02
     vertex  7.541009e+01  1.500000e+01  3.400000e+02
   endloop
 endfacet
 facet normal  0.000000e+00  0.000000e+00 -1.000000e+00
   outer loop
     vertex  3.552714e-15  3.000000e+01  3.400000e+02
     vertex  4.796163e-14  4.350000e+02  3.400000e+02
     vertex  1.500000e+01  7.541009e+01  3.400000e+02
   endloop
 endfacet
 facet normal -4.808326e-01  0.000000e+00 -8.768124e-01
   outer loop
     vertex  5.900000e+02  1.500000e+01  2.550000e+02
     vertex  4.350000e+02 -1.456613e-13  3.400000e+02
     vertex  4.350000e+02  1.500000e+01  3.400000e+02
   endloop
 endfacet
 facet normal -4.808326e-01  0.000000e+00 -8.768124e-01
   outer loop
     vertex  5.900000e+02 -1.971756e-13  2.550000e+02
     vertex  4.350000e+02 -1.456613e-13  3.400000e+02
     vertex  5.900000e+02  1.500000e+01  2.550000e+02
   endloop
 endfacet
 facet normal  0.000000e+00  1.000000e+00  0.000000e+00
   outer loop
     vertex  4.350000e+02  1.500000e+01  3.700000e+02
     vertex  7.541009e+01  1.500000e+01  3.400000e+02
     vertex  7.541009e+01  1.500000e+01  3.700000e+02
   endloop
 endfacet
 facet normal  0.000000e+00  1.000000e+00  0.000000e+00
   outer loop
     vertex  4.350000e+02  1.500000e+01  3.400000e+02
     vertex  4.350000e+02  1.500000e+01  3.700000e+02
     vertex  4.494250e+02  1.500000e+01  3.663044e+02
   endloop
 endfacet
 facet normal  0.000000e+00  1.000000e+00 -0.000000e+00
   outer loop
     vertex  4.350000e+02  1.500000e+01  3.400000e+02
     vertex  7.541009e+01  1.500000e+01  3.400000e+02
     vertex  4.350000e+02  1.500000e+01  3.700000e+02
   endloop
 endfacet
 facet normal  0.000000e+00  1.000000e+00 -0.000000e+00
   outer loop
     vertex  5.900000e+02  1.500000e+01  2.550000e+02
     vertex  4.494250e+02  1.500000e+01  3.663044e+02
     vertex  6.044250e+02  1.500000e+01  2.813044e+02
   endloop
 endfacet
 facet normal  0.000000e+00  1.000000e+00  0.000000e+00
   outer loop
     vertex  5.900000e+02  1.500000e+01  2.550000e+02
     vertex  4.350000e+02  1.500000e+01  3.400000e+02
     vertex  4.494250e+02  1.500000e+01  3.663044e+02
   endloop
 endfacet
 facet normal  0.000000e+00  1.000000e+00  0.000000e+00
   outer loop
     vertex  6.200000e+02  1.500000e+01  2.550000e+02
     vertex  5.900000e+02  1.500000e+01  2.550000e+02
     vertex  6.044250e+02  1.500000e+01  2.813044e+02
   endloop
 endfacet
 facet normal  0.000000e+00  1.000000e+00 -0.000000e+00
   outer loop
     vertex  4.350000e+02  1.500000e+01 -3.700000e+02
     vertex  7.541009e+01  1.500000e+01 -3.400000e+02
     vertex  4.350000e+02  1.500000e+01 -3.400000e+02
   endloop
 endfacet
 facet normal  0.000000e+00  1.000000e+00  0.000000e+00
   outer loop
     vertex  4.350000e+02  1.500000e+01 -3.700000e+02
     vertex  7.541009e+01  1.500000e+01 -3.700000e+02
     vertex  7.541009e+01  1.500000e+01 -3.400000e+02
   endloop
 endfacet
 facet normal  0.000000e+00  1.000000e+00  0.000000e+00
   outer loop
     vertex  4.494250e+02  1.500000e+01 -3.663044e+02
     vertex  4.350000e+02  1.500000e+01 -3.700000e+02
     vertex  4.350000e+02  1.500000e+01 -3.400000e+02
   endloop
 endfacet
 facet normal  0.000000e+00  1.000000e+00  0.000000e+00
   outer loop
     vertex  6.200000e+02  1.500000e+01 -2.550000e+02
     vertex  5.900000e+02  1.500000e+01 -2.550000e+02
     vertex  5.900000e+02  1.500000e+01  2.550000e+02
   endloop
 endfacet
 facet normal  0.000000e+00  1.000000e+00 -0.000000e+00
   outer loop
     vertex  6.200000e+02  1.500000e+01 -2.550000e+02
     vertex  5.900000e+02  1.500000e+01  2.550000e+02
     vertex  6.200000e+02  1.500000e+01  2.550000e+02
   endloop
 endfacet
 facet normal  0.000000e+00  1.000000e+00  0.000000e+00
   outer loop
     vertex  6.044250e+02  1.500000e+01 -2.813044e+02
     vertex  4.350000e+02  1.500000e+01 -3.400000e+02
     vertex  5.900000e+02  1.500000e+01 -2.550000e+02
   endloop
 endfacet
 facet normal  0.000000e+00  1.000000e+00 -0.000000e+00
   outer loop
     vertex  6.044250e+02  1.500000e+01 -2.813044e+02
     vertex  5.900000e+02  1.500000e+01 -2.550000e+02
     vertex  6.200000e+02  1.500000e+01 -2.550000e+02
   endloop
 endfacet
 facet normal  0.000000e+00  1.000000e+00  0.000000e+00
   outer loop
     vertex  6.044250e+02  1.500000e+01 -2.813044e+02
     vertex  4.494250e+02  1.500000e+01 -3.663044e+02
     vertex  4.350000e+02  1.500000e+01 -3.400000e+02
   endloop
 endfacet
 facet normal  3.826834e-01 -9.238795e-01  0.000000e+00
   outer loop
     vertex  4.076278e+02  1.526091e+02  3.400000e+02
     vertex  7.541009e+01  1.500000e+01  3.700000e+02
     vertex  7.541009e+01  1.500000e+01  3.400000e+02
   endloop
 endfacet
 facet normal  3.826834e-01 -9.238795e-01  0.000000e+00
   outer loop
     vertex  4.076278e+02  1.526091e+02  3.400000e+02
     vertex  4.209548e+02  1.581293e+02  3.663044e+02
     vertex  4.076278e+02  1.526091e+02  3.700000e+02
   endloop
 endfacet
 facet normal  3.826834e-01 -9.238795e-01  0.000000e+00
   outer loop
     vertex  4.076278e+02  1.526091e+02  3.400000e+02
     vertex  4.076278e+02  1.526091e+02  3.700000e+02
     vertex  7.541009e+01  1.500000e+01  3.700000e+02
   endloop
 endfacet
 facet normal  3.826834e-01 -9.238795e-01  6.216729e-16
   outer loop
     vertex  5.508292e+02  2.119250e+02  2.550000e+02
     vertex  5.641561e+02  2.174452e+02  2.813044e+02
     vertex  4.209548e+02  1.581293e+02  3.663044e+02
   endloop
 endfacet
 facet normal  3.826834e-01 -9.238795e-01 -5.144879e-16
   outer loop
     vertex  5.508292e+02  2.119250e+02  2.550000e+02
     vertex  4.209548e+02  1.581293e+02  3.663044e+02
     vertex  4.076278e+02  1.526091e+02  3.400000e+02
   endloop
 endfacet
 facet normal  3.826834e-01 -9.238795e-01  2.881317e-16
   outer loop
     vertex  5.785456e+02  2.234055e+02  2.550000e+02
     vertex  5.641561e+02  2.174452e+02  2.813044e+02
     vertex  5.508292e+02  2.119250e+02  2.550000e+02
   endloop
 endfacet
 facet normal  3.826834e-01 -9.238795e-01  0.000000e+00
   outer loop
     vertex  4.076278e+02  1.526091e+02 -3.700000e+02
     vertex  4.076278e+02  1.526091e+02 -3.400000e+02
     vertex  7.541009e+01  1.500000e+01 -3.400000e+02
   endloop
 endfacet
 facet normal  3.826834e-01 -9.238795e-01  0.000000e+00
   outer loop
     vertex  4.076278e+02  1.526091e+02 -3.700000e+02
     vertex  7.541009e+01  1.500000e+01 -3.400000e+02
     vertex  7.541009e+01  1.500000e+01 -3.700000e+02
   endloop
 endfacet
 facet normal  3.826834e-01 -9.238795e-01  0.000000e+00
   outer loop
     vertex  4.209548e+02  1.581293e+02 -3.663044e+02
     vertex  4.076278e+02  1.526091e+02 -3.400000e+02
     vertex  4.076278e+02  1.526091e+02 -3.700000e+02
   endloop
 endfacet
 facet normal  3.826834e-01 -9.238795e-01  0.000000e+00
   outer loop
     vertex  5.508292e+02  2.119250e+02 -2.550000e+02
     vertex  5.785456e+02  2.234055e+02  2.550000e+02
     vertex  5.508292e+02  2.119250e+02  2.550000e+02
   endloop
 endfacet
 facet normal  3.826834e-01 -9.238795e-01  5.144879e-16
   outer loop
     vertex  5.508292e+02  2.119250e+02 -2.550000e+02
     vertex  4.076278e+02  1.526091e+02 -3.400000e+02
     vertex  4.209548e+02  1.581293e+02 -3.663044e+02
   endloop
 endfacet
 facet normal  3.826834e-01 -9.238795e-01  0.000000e+00
   outer loop
     vertex  5.785456e+02  2.234055e+02 -2.550000e+02
     vertex  5.785456e+02  2.234055e+02  2.550000e+02
     vertex  5.508292e+02  2.119250e+02 -2.550000e+02
   endloop
 endfacet
 facet normal  3.826834e-01 -9.238795e-01 -6.216729e-16
   outer loop
     vertex  5.641561e+02  2.174452e+02 -2.813044e+02
     vertex  5.508292e+02  2.119250e+02 -2.550000e+02
     vertex  4.209548e+02  1.581293e+02 -3.663044e+02
   endloop
 endfacet
 facet normal  3.826834e-01 -9.238795e-01 -2.881317e-16
   outer loop
     vertex  5.641561e+02  2.174452e+02 -2.813044e+02
     vertex  5.785456e+02  2.234055e+02 -2.550000e+02
     vertex  5.508292e+02  2.119250e+02 -2.550000e+02
   endloop
 endfacet
 facet normal -4.442314e-01 -1.840067e-01 -8.768124e-01
   outer loop
     vertex  5.393487e+02  2.396414e+02  2.550000e+02
     vertex  4.076278e+02  1.526091e+02  3.400000e+02
     vertex  3.961473e+02  1.803255e+02  3.400000e+02
   endloop
 endfacet
 facet normal -4.442314e-01 -1.840067e-01 -8.768124e-01
   outer loop
     vertex  5.508292e+02  2.119250e+02  2.550000e+02
     vertex  4.076278e+02  1.526091e+02  3.400000e+02
     vertex  5.393487e+02  2.396414e+02  2.550000e+02
   endloop
 endfacet
 facet normal -3.826834e-01  9.238795e-01  6.744681e-16
   outer loop
     vertex  3.961473e+02  1.803255e+02  3.700000e+02
     vertex  6.392959e+01  4.271639e+01  3.400000e+02
     vertex  6.392959e+01  4.271639e+01  3.700000e+02
   endloop
 endfacet
 facet normal -3.826834e-01  9.238795e-01  0.000000e+00
   outer loop
     vertex  3.961473e+02  1.803255e+02  3.400000e+02
     vertex  3.961473e+02  1.803255e+02  3.700000e+02
     vertex  4.094743e+02  1.858457e+02  3.663044e+02
   endloop
 endfacet
 facet normal -3.826834e-01  9.238795e-01  0.000000e+00
   outer loop
     vertex  3.961473e+02  1.803255e+02  3.400000e+02
     vertex  6.392959e+01  4.271639e+01  3.400000e+02
     vertex  3.961473e+02  1.803255e+02  3.700000e+02
   endloop
 endfacet
 facet normal -3.826834e-01  9.238795e-01 -4.930509e-16
   outer loop
     vertex  5.393487e+02  2.396414e+02  2.550000e+02
     vertex  4.094743e+02  1.858457e+02  3.663044e+02
     vertex  5.526756e+02  2.451616e+02  2.813044e+02
   endloop
 endfacet
 facet normal -3.826834e-01  9.238795e-01  6.859839e-16
   outer loop
     vertex  5.393487e+02  2.396414e+02  2.550000e+02
     vertex  3.961473e+02  1.803255e+02  3.400000e+02
     vertex  4.094743e+02  1.858457e+02  3.663044e+02
   endloop
 endfacet
 facet normal -3.826834e-01  9.238795e-01 -2.881317e-16
   outer loop
     vertex  5.670651e+02  2.511219e+02  2.550000e+02
     vertex  5.393487e+02  2.396414e+02  2.550000e+02
     vertex  5.526756e+02  2.451616e+02  2.813044e+02
   endloop
 endfacet
 facet normal -3.826834e-01  9.238795e-01  0.000000e+00
   outer loop
     vertex  3.961473e+02  1.803255e+02 -3.700000e+02
     vertex  6.392959e+01  4.271639e+01 -3.400000e+02
     vertex  3.961473e+02  1.803255e+02 -3.400000e+02
   endloop
 endfacet
 facet normal -3.826834e-01  9.238795e-01  6.744681e-16
   outer loop
     vertex  3.961473e+02  1.803255e+02 -3.700000e+02
     vertex  6.392959e+01  4.271639e+01 -3.700000e+02
     vertex  6.392959e+01  4.271639e+01 -3.400000e+02
   endloop
 endfacet
 facet normal -3.826834e-01  9.238795e-01  0.000000e+00
   outer loop
     vertex  4.094743e+02  1.858457e+02 -3.663044e+02
     vertex  3.961473e+02  1.803255e+02 -3.700000e+02
     vertex  3.961473e+02  1.803255e+02 -3.400000e+02
   endloop
 endfacet
 facet normal -3.826834e-01  9.238795e-01  0.000000e+00
   outer loop
     vertex  5.393487e+02  2.396414e+02 -2.550000e+02
     vertex  5.393487e+02  2.396414e+02  2.550000e+02
     vertex  5.670651e+02  2.511219e+02  2.550000e+02
   endloop
 endfacet
 facet normal -3.826834e-01  9.238795e-01  0.000000e+00
   outer loop
     vertex  5.670651e+02  2.511219e+02 -2.550000e+02
     vertex  5.393487e+02  2.396414e+02 -2.550000e+02
     vertex  5.670651e+02  2.511219e+02  2.550000e+02
   endloop
 endfacet
 facet normal -3.826834e-01  9.238795e-01  6.216729e-16
   outer loop
     vertex  5.526756e+02  2.451616e+02 -2.813044e+02
     vertex  3.961473e+02  1.803255e+02 -3.400000e+02
     vertex  5.393487e+02  2.396414e+02 -2.550000e+02
   endloop
 endfacet
 facet normal -3.826834e-01  9.238795e-01 -1.028976e-15
   outer loop
     vertex  5.526756e+02  2.451616e+02 -2.813044e+02
     vertex  4.094743e+02  1.858457e+02 -3.663044e+02
     vertex  3.961473e+02  1.803255e+02 -3.400000e+02
   endloop
 endfacet
 facet normal -3.826834e-01  9.238795e-01  2.881317e-16
   outer loop
     vertex  5.526756e+02  2.451616e+02 -2.813044e+02
     vertex  5.393487e+02  2.396414e+02 -2.550000e+02
     vertex  5.670651e+02  2.511219e+02 -2.550000e+02
   endloop
 endfacet
 facet normal  7.071068e-01 -7.071068e-01  2.023404e-15
   outer loop
     vertex  3.181981e+02  2.969848e+02  3.700000e+02
     vertex  6.392959e+01  4.271639e+01  3.700000e+02
     vertex  6.392959e+01  4.271639e+01  3.400000e+02
   endloop
 endfacet
 facet normal  7.071068e-01 -7.071068e-01  0.000000e+00
   outer loop
     vertex  3.181981e+02  2.969848e+02  3.400000e+02
     vertex  3.283981e+02  3.071848e+02  3.663044e+02
     vertex  3.181981e+02  2.969848e+02  3.700000e+02
   endloop
 endfacet
 facet normal  7.071068e-01 -7.071068e-01  0.000000e+00
   outer loop
     vertex  3.181981e+02  2.969848e+02  3.400000e+02
     vertex  3.181981e+02  2.969848e+02  3.700000e+02
     vertex  6.392959e+01  4.271639e+01  3.400000e+02
   endloop
 endfacet
 facet normal  7.071068e-01 -7.071068e-01 -1.179035e-15
   outer loop
     vertex  4.277996e+02  4.065864e+02  2.550000e+02
     vertex  4.379996e+02  4.167864e+02  2.813044e+02
     vertex  3.283981e+02  3.071848e+02  3.663044e+02
   endloop
 endfacet
 facet normal  7.071068e-01 -7.071068e-01 -1.028976e-15
   outer loop
     vertex  4.277996e+02  4.065864e+02  2.550000e+02
     vertex  3.283981e+02  3.071848e+02  3.663044e+02
     vertex  3.181981e+02  2.969848e+02  3.400000e+02
   endloop
 endfacet
 facet normal  7.071068e-01 -7.071068e-01 -7.923621e-16
   outer loop
     vertex  4.490128e+02  4.277996e+02  2.550000e+02
     vertex  4.379996e+02  4.167864e+02  2.813044e+02
     vertex  4.277996e+02  4.065864e+02  2.550000e+02
   endloop
 endfacet
 facet normal  7.071068e-01 -7.071068e-01  0.000000e+00
   outer loop
     vertex  3.181981e+02  2.969848e+02 -3.700000e+02
     vertex  3.181981e+02  2.969848e+02 -3.400000e+02
     vertex  6.392959e+01  4.271639e+01 -3.400000e+02
   endloop
 endfacet
 facet normal  7.071068e-01 -7.071068e-01  2.023404e-15
   outer loop
     vertex  3.181981e+02  2.969848e+02 -3.700000e+02
     vertex  6.392959e+01  4.271639e+01 -3.400000e+02
     vertex  6.392959e+01  4.271639e+01 -3.700000e+02
   endloop
 endfacet
 facet normal  7.071068e-01 -7.071068e-01  0.000000e+00
   outer loop
     vertex  3.283981e+02  3.071848e+02 -3.663044e+02
     vertex  3.181981e+02  2.969848e+02 -3.400000e+02
     vertex  3.181981e+02  2.969848e+02 -3.700000e+02
   endloop
 endfacet
 facet normal  7.071068e-01 -7.071068e-01  0.000000e+00
   outer loop
     vertex  4.490128e+02  4.277996e+02 -2.550000e+02
     vertex  4.277996e+02  4.065864e+02  2.550000e+02
     vertex  4.277996e+02  4.065864e+02 -2.550000e+02
   endloop
 endfacet
 facet normal  7.071068e-01 -7.071068e-01  0.000000e+00
   outer loop
     vertex  4.490128e+02  4.277996e+02 -2.550000e+02
     vertex  4.490128e+02  4.277996e+02  2.550000e+02
     vertex  4.277996e+02  4.065864e+02  2.550000e+02
   endloop
 endfacet
 facet normal  7.071068e-01 -7.071068e-01  1.200472e-15
   outer loop
     vertex  4.379996e+02  4.167864e+02 -2.813044e+02
     vertex  4.277996e+02  4.065864e+02 -2.550000e+02
     vertex  3.181981e+02  2.969848e+02 -3.400000e+02
   endloop
 endfacet
 facet normal  7.071068e-01 -7.071068e-01  7.923621e-16
   outer loop
     vertex  4.379996e+02  4.167864e+02 -2.813044e+02
     vertex  4.490128e+02  4.277996e+02 -2.550000e+02
     vertex  4.277996e+02  4.065864e+02 -2.550000e+02
   endloop
 endfacet
 facet normal  7.071068e-01 -7.071068e-01  1.028976e-15
   outer loop
     vertex  4.379996e+02  4.167864e+02 -2.813044e+02
     vertex  3.181981e+02  2.969848e+02 -3.400000e+02
     vertex  3.283981e+02  3.071848e+02 -3.663044e+02
   endloop
 endfacet
 facet normal -3.400000e-01 -3.400000e-01 -8.768124e-01
   outer loop
     vertex  4.065864e+02  4.277996e+02  2.550000e+02
     vertex  3.181981e+02  2.969848e+02  3.400000e+02
     vertex  2.969848e+02  3.181981e+02  3.400000e+02
   endloop
 endfacet
 facet normal -3.400000e-01 -3.400000e-01 -8.768124e-01
   outer loop
     vertex  4.277996e+02  4.065864e+02  2.550000e+02
     vertex  3.181981e+02  2.969848e+02  3.400000e+02
     vertex  4.065864e+02  4.277996e+02  2.550000e+02
   endloop
 endfacet
 facet normal -7.071068e-01  7.071068e-01  2.697872e-15
   outer loop
     vertex  2.969848e+02  3.181981e+02  3.700000e+02
     vertex  4.271639e+01  6.392959e+01  3.400000e+02
     vertex  4.271639e+01  6.392959e+01  3.700000e+02
   endloop
 endfacet
 facet normal -7.071068e-01  7.071068e-01  0.000000e+00
   outer loop
     vertex  2.969848e+02  3.181981e+02  3.400000e+02
     vertex  2.969848e+02  3.181981e+02  3.700000e+02
     vertex  3.071848e+02  3.283981e+02  3.663044e+02
   endloop
 endfacet
 facet normal -7.071068e-01  7.071068e-01  0.000000e+00
   outer loop
     vertex  2.969848e+02  3.181981e+02  3.400000e+02
     vertex  4.271639e+01  6.392959e+01  3.400000e+02
     vertex  2.969848e+02  3.181981e+02  3.700000e+02
   endloop
 endfacet
 facet normal -7.071068e-01  7.071068e-01 -1.179035e-15
   outer loop
     vertex  4.065864e+02  4.277996e+02  2.550000e+02
     vertex  3.071848e+02  3.283981e+02  3.663044e+02
     vertex  4.167864e+02  4.379996e+02  2.813044e+02
   endloop
 endfacet
 facet normal -7.071068e-01  7.071068e-01 -1.371968e-15
   outer loop
     vertex  4.065864e+02  4.277996e+02  2.550000e+02
     vertex  2.969848e+02  3.181981e+02  3.400000e+02
     vertex  3.071848e+02  3.283981e+02  3.663044e+02
   endloop
 endfacet
 facet normal -7.071068e-01  7.071068e-01 -7.923621e-16
   outer loop
     vertex  4.277996e+02  4.490128e+02  2.550000e+02
     vertex  4.065864e+02  4.277996e+02  2.550000e+02
     vertex  4.167864e+02  4.379996e+02  2.813044e+02
   endloop
 endfacet
 facet normal -7.071068e-01  7.071068e-01  2.697872e-15
   outer loop
     vertex  2.969848e+02  3.181981e+02 -3.400000e+02
     vertex  4.271639e+01  6.392959e+01 -3.700000e+02
     vertex  4.271639e+01  6.392959e+01 -3.400000e+02
   endloop
 endfacet
 facet normal -7.071068e-01  7.071068e-01  0.000000e+00
   outer loop
     vertex  2.969848e+02  3.181981e+02 -3.700000e+02
     vertex  4.271639e+01  6.392959e+01 -3.700000e+02
     vertex  2.969848e+02  3.181981e+02 -3.400000e+02
   endloop
 endfacet
 facet normal -7.071068e-01  7.071068e-01  0.000000e+00
   outer loop
     vertex  3.071848e+02  3.283981e+02 -3.663044e+02
     vertex  2.969848e+02  3.181981e+02 -3.700000e+02
     vertex  2.969848e+02  3.181981e+02 -3.400000e+02
   endloop
 endfacet
 facet normal -7.071068e-01  7.071068e-01  0.000000e+00
   outer loop
     vertex  4.277996e+02  4.490128e+02 -2.550000e+02
     vertex  4.065864e+02  4.277996e+02 -2.550000e+02
     vertex  4.065864e+02  4.277996e+02  2.550000e+02
   endloop
 endfacet
 facet normal -7.071068e-01  7.071068e-01  0.000000e+00
   outer loop
     vertex  4.277996e+02  4.490128e+02 -2.550000e+02
     vertex  4.065864e+02  4.277996e+02  2.550000e+02
     vertex  4.277996e+02  4.490128e+02  2.550000e+02
   endloop
 endfacet
 facet normal -7.071068e-01  7.071068e-01  1.157598e-15
   outer loop
     vertex  4.167864e+02  4.379996e+02 -2.813044e+02
     vertex  2.969848e+02  3.181981e+02 -3.400000e+02
     vertex  4.065864e+02  4.277996e+02 -2.550000e+02
   endloop
 endfacet
 facet normal -7.071068e-01  7.071068e-01  7.923621e-16
   outer loop
     vertex  4.167864e+02  4.379996e+02 -2.813044e+02
     vertex  4.065864e+02  4.277996e+02 -2.550000e+02
     vertex  4.277996e+02  4.490128e+02 -2.550000e+02
   endloop
 endfacet
 facet normal -7.071068e-01  7.071068e-01  1.371968e-15
   outer loop
     vertex  4.167864e+02  4.379996e+02 -2.813044e+02
     vertex  3.071848e+02  3.283981e+02 -3.663044e+02
     vertex  2.969848e+02  3.181981e+02 -3.400000e+02
   endloop
 endfacet
 facet normal  9.238795e-01 -3.826834e-01  1.348936e-15
   outer loop
     vertex  1.803255e+02  3.961473e+02  3.700000e+02
     vertex  4.271639e+01  6.392959e+01  3.700000e+02
     vertex  4.271639e+01  6.392959e+01  3.400000e+02
   endloop
 endfacet
 facet normal  9.238795e-01 -3.826834e-01  0.000000e+00
   outer loop
     vertex  1.803255e+02  3.961473e+02  3.400000e+02
     vertex  1.858457e+02  4.094743e+02  3.663044e+02
     vertex  1.803255e+02  3.961473e+02  3.700000e+02
   endloop
 endfacet
 facet normal  9.238795e-01 -3.826834e-01  0.000000e+00
   outer loop
     vertex  1.803255e+02  3.961473e+02  3.400000e+02
     vertex  1.803255e+02  3.961473e+02  3.700000e+02
     vertex  4.271639e+01  6.392959e+01  3.400000e+02
   endloop
 endfacet
 facet normal  9.238795e-01 -3.826834e-01 -4.930509e-16
   outer loop
     vertex  2.396414e+02  5.393487e+02  2.550000e+02
     vertex  2.451616e+02  5.526756e+02  2.813044e+02
     vertex  1.858457e+02  4.094743e+02  3.663044e+02
   endloop
 endfacet
 facet normal  9.238795e-01 -3.826834e-01  0.000000e+00
   outer loop
     vertex  2.396414e+02  5.393487e+02  2.550000e+02
     vertex  1.858457e+02  4.094743e+02  3.663044e+02
     vertex  1.803255e+02  3.961473e+02  3.400000e+02
   endloop
 endfacet
 facet normal  9.238795e-01 -3.826834e-01 -2.881317e-16
   outer loop
     vertex  2.511219e+02  5.670651e+02  2.550000e+02
     vertex  2.451616e+02  5.526756e+02  2.813044e+02
     vertex  2.396414e+02  5.393487e+02  2.550000e+02
   endloop
 endfacet
 facet normal  9.238795e-01 -3.826834e-01  0.000000e+00
   outer loop
     vertex  1.803255e+02  3.961473e+02 -3.700000e+02
     vertex  1.803255e+02  3.961473e+02 -3.400000e+02
     vertex  4.271639e+01  6.392959e+01 -3.400000e+02
   endloop
 endfacet
 facet normal  9.238795e-01 -3.826834e-01  1.348936e-15
   outer loop
     vertex  1.803255e+02  3.961473e+02 -3.700000e+02
     vertex  4.271639e+01  6.392959e+01 -3.400000e+02
     vertex  4.271639e+01  6.392959e+01 -3.700000e+02
   endloop
 endfacet
 facet normal  9.238795e-01 -3.826834e-01  0.000000e+00
   outer loop
     vertex  1.858457e+02  4.094743e+02 -3.663044e+02
     vertex  1.803255e+02  3.961473e+02 -3.400000e+02
     vertex  1.803255e+02  3.961473e+02 -3.700000e+02
   endloop
 endfacet
 facet normal  9.238795e-01 -3.826834e-01  0.000000e+00
   outer loop
     vertex  2.511219e+02  5.670651e+02 -2.550000e+02
     vertex  2.396414e+02  5.393487e+02  2.550000e+02
     vertex  2.396414e+02  5.393487e+02 -2.550000e+02
   endloop
 endfacet
 facet normal  9.238795e-01 -3.826834e-01  0.000000e+00
   outer loop
     vertex  2.511219e+02  5.670651e+02 -2.550000e+02
     vertex  2.511219e+02  5.670651e+02  2.550000e+02
     vertex  2.396414e+02  5.393487e+02  2.550000e+02
   endloop
 endfacet
 facet normal  9.238795e-01 -3.826834e-01  5.573619e-16
   outer loop
     vertex  2.451616e+02  5.526756e+02 -2.813044e+02
     vertex  2.396414e+02  5.393487e+02 -2.550000e+02
     vertex  1.803255e+02  3.961473e+02 -3.400000e+02
   endloop
 endfacet
 facet normal  9.238795e-01 -3.826834e-01  2.881317e-16
   outer loop
     vertex  2.451616e+02  5.526756e+02 -2.813044e+02
     vertex  2.511219e+02  5.670651e+02 -2.550000e+02
     vertex  2.396414e+02  5.393487e+02 -2.550000e+02
   endloop
 endfacet
 facet normal  9.238795e-01 -3.826834e-01  0.000000e+00
   outer loop
     vertex  2.451616e+02  5.526756e+02 -2.813044e+02
     vertex  1.803255e+02  3.961473e+02 -3.400000e+02
     vertex  1.858457e+02  4.094743e+02 -3.663044e+02
   endloop
 endfacet
 facet normal -1.840067e-01 -4.442314e-01 -8.768124e-01
   outer loop
     vertex  2.396414e+02  5.393487e+02  2.550000e+02
     vertex  1.803255e+02  3.961473e+02  3.400000e+02
     vertex  1.526091e+02  4.076278e+02  3.400000e+02
   endloop
 endfacet
 facet normal -1.840067e-01 -4.442314e-01 -8.768124e-01
   outer loop
     vertex  2.396414e+02  5.393487e+02  2.550000e+02
     vertex  1.526091e+02  4.076278e+02  3.400000e+02
     vertex  2.119250e+02  5.508292e+02  2.550000e+02
   endloop
 endfacet
 facet normal -9.238795e-01  3.826834e-01 -6.744681e-16
   outer loop
     vertex  1.526091e+02  4.076278e+02  3.400000e+02
     vertex  1.500000e+01  7.541009e+01  3.400000e+02
     vertex  1.500000e+01  7.541009e+01  3.700000e+02
   endloop
 endfacet
 facet normal -9.238795e-01  3.826834e-01  0.000000e+00
   outer loop
     vertex  1.526091e+02  4.076278e+02  3.400000e+02
     vertex  1.526091e+02  4.076278e+02  3.700000e+02
     vertex  1.581293e+02  4.209548e+02  3.663044e+02
   endloop
 endfacet
 facet normal -9.238795e-01  3.826834e-01  0.000000e+00
   outer loop
     vertex  1.526091e+02  4.076278e+02  3.400000e+02
     vertex  1.500000e+01  7.541009e+01  3.700000e+02
     vertex  1.526091e+02  4.076278e+02  3.700000e+02
   endloop
 endfacet
 facet normal -9.238795e-01  3.826834e-01  3.429919e-16
   outer loop
     vertex  2.174452e+02  5.641561e+02  2.813044e+02
     vertex  1.526091e+02  4.076278e+02  3.400000e+02
     vertex  1.581293e+02  4.209548e+02  3.663044e+02
   endloop
 endfacet
 facet normal -9.238795e-01  3.826834e-01  6.645469e-16
   outer loop
     vertex  2.119250e+02  5.508292e+02  2.550000e+02
     vertex  1.526091e+02  4.076278e+02  3.400000e+02
     vertex  2.174452e+02  5.641561e+02  2.813044e+02
   endloop
 endfacet
 facet normal -9.238795e-01  3.826834e-01  2.881317e-16
   outer loop
     vertex  2.234055e+02  5.785456e+02  2.550000e+02
     vertex  2.119250e+02  5.508292e+02  2.550000e+02
     vertex  2.174452e+02  5.641561e+02  2.813044e+02
   endloop
 endfacet
 facet normal -9.238795e-01  3.826834e-01 -6.744681e-16
   outer loop
     vertex  1.526091e+02  4.076278e+02 -3.400000e+02
     vertex  1.500000e+01  7.541009e+01 -3.700000e+02
     vertex  1.500000e+01  7.541009e+01 -3.400000e+02
   endloop
 endfacet
 facet normal -9.238795e-01  3.826834e-01  0.000000e+00
   outer loop
     vertex  1.526091e+02  4.076278e+02 -3.700000e+02
     vertex  1.500000e+01  7.541009e+01 -3.700000e+02
     vertex  1.526091e+02  4.076278e+02 -3.400000e+02
   endloop
 endfacet
 facet normal -9.238795e-01  3.826834e-01  0.000000e+00
   outer loop
     vertex  1.581293e+02  4.209548e+02 -3.663044e+02
     vertex  1.526091e+02  4.076278e+02 -3.700000e+02
     vertex  1.526091e+02  4.076278e+02 -3.400000e+02
   endloop
 endfacet
 facet normal -9.238795e-01  3.826834e-01  0.000000e+00
   outer loop
     vertex  2.234055e+02  5.785456e+02 -2.550000e+02
     vertex  2.119250e+02  5.508292e+02 -2.550000e+02
     vertex  2.119250e+02  5.508292e+02  2.550000e+02
   endloop
 endfacet
 facet normal -9.238795e-01  3.826834e-01  0.000000e+00
   outer loop
     vertex  2.234055e+02  5.785456e+02 -2.550000e+02
     vertex  2.119250e+02  5.508292e+02  2.550000e+02
     vertex  2.234055e+02  5.785456e+02  2.550000e+02
   endloop
 endfacet
 facet normal -9.238795e-01  3.826834e-01 -6.645469e-16
   outer loop
     vertex  2.174452e+02  5.641561e+02 -2.813044e+02
     vertex  1.526091e+02  4.076278e+02 -3.400000e+02
     vertex  2.119250e+02  5.508292e+02 -2.550000e+02
   endloop
 endfacet
 facet normal -9.238795e-01  3.826834e-01 -2.881317e-16
   outer loop
     vertex  2.174452e+02  5.641561e+02 -2.813044e+02
     vertex  2.119250e+02  5.508292e+02 -2.550000e+02
     vertex  2.234055e+02  5.785456e+02 -2.550000e+02
   endloop
 endfacet
 facet normal -9.238795e-01  3.826834e-01 -3.429919e-16
   outer loop
     vertex  2.174452e+02  5.641561e+02 -2.813044e+02
     vertex  1.581293e+02  4.209548e+02 -3.663044e+02
     vertex  1.526091e+02  4.076278e+02 -3.400000e+02
   endloop
 endfacet
 facet normal  1.000000e+00 -1.136189e-16 -3.552714e-16
   outer loop
     vertex  1.500000e+01  4.350000e+02  3.400000e+02
     vertex  1.500000e+01  7.541009e+01  3.700000e+02
     vertex  1.500000e+01  7.541009e+01  3.400000e+02
   endloop
 endfacet
 facet normal  1.000000e+00 -1.231445e-16  0.000000e+00
   outer loop
     vertex  1.500000e+01  4.350000e+02  3.400000e+02
     vertex  1.500000e+01  4.494250e+02  3.663044e+02
     vertex  1.500000e+01  4.350000e+02  3.700000e+02
   endloop
 endfacet
 facet normal  1.000000e+00 -8.397918e-17  0.000000e+00
   outer loop
     vertex  1.500000e+01  4.350000e+02  3.400000e+02
     vertex  1.500000e+01  4.350000e+02  3.700000e+02
     vertex  1.500000e+01  7.541009e+01  3.700000e+02
   endloop
 endfacet
 facet normal  1.000000e+00 -1.165783e-16 -3.600818e-18
   outer loop
     vertex  1.500000e+01  5.900000e+02  2.550000e+02
     vertex  1.500000e+01  6.044250e+02  2.813044e+02
     vertex  1.500000e+01  4.494250e+02  3.663044e+02
   endloop
 endfacet
 facet normal  1.000000e+00 -1.165783e-16 -3.600818e-18
   outer loop
     vertex  1.500000e+01  5.900000e+02  2.550000e+02
     vertex  1.500000e+01  4.494250e+02  3.663044e+02
     vertex  1.500000e+01  4.350000e+02  3.400000e+02
   endloop
 endfacet
 facet normal  1.000000e+00 -1.184238e-16 -2.588780e-18
   outer loop
     vertex  1.500000e+01  6.200000e+02  2.550000e+02
     vertex  1.500000e+01  6.044250e+02  2.813044e+02
     vertex  1.500000e+01  5.900000e+02  2.550000e+02
   endloop
 endfacet
 facet normal  1.000000e+00 -8.397918e-17  0.000000e+00
   outer loop
     vertex  1.500000e+01  4.350000e+02 -3.700000e+02
     vertex  1.500000e+01  4.350000e+02 -3.400000e+02
     vertex  1.500000e+01  7.541009e+01 -3.400000e+02
   endloop
 endfacet
 facet normal  1.000000e+00 -1.136189e-16 -3.552714e-16
   outer loop
     vertex  1.500000e+01  4.350000e+02 -3.700000e+02
     vertex  1.500000e+01  7.541009e+01 -3.400000e+02
     vertex  1.500000e+01  7.541009e+01 -3.700000e+02
   endloop
 endfacet
 facet normal  1.000000e+00 -1.231445e-16  0.000000e+00
   outer loop
     vertex  1.500000e+01  4.494250e+02 -3.663044e+02
     vertex  1.500000e+01  4.350000e+02 -3.400000e+02
     vertex  1.500000e+01  4.350000e+02 -3.700000e+02
   endloop
 endfacet
 facet normal  1.000000e+00 -1.184238e-16  0.000000e+00
   outer loop
     vertex  1.500000e+01  6.200000e+02 -2.550000e+02
     vertex  1.500000e+01  5.900000e+02  2.550000e+02
     vertex  1.500000e+01  5.900000e+02 -2.550000e+02
   endloop
 endfacet
 facet normal  1.000000e+00 -1.184238e-16  0.000000e+00
   outer loop
     vertex  1.500000e+01  6.200000e+02 -2.550000e+02
     vertex  1.500000e+01  6.200000e+02  2.550000e+02
     vertex  1.500000e+01  5.900000e+02  2.550000e+02
   endloop
 endfacet
 facet normal  1.000000e+00 -1.165783e-16  3.600818e-18
   outer loop
     vertex  1.500000e+01  6.044250e+02 -2.813044e+02
     vertex  1.500000e+01  5.900000e+02 -2.550000e+02
     vertex  1.500000e+01  4.350000e+02 -3.400000e+02
   endloop
 endfacet
 facet normal  1.000000e+00 -1.184238e-16  2.588780e-18
   outer loop
     vertex  1.500000e+01  6.044250e+02 -2.813044e+02
     vertex  1.500000e+01  6.200000e+02 -2.550000e+02
     vertex  1.500000e+01  5.900000e+02 -2.550000e+02
   endloop
 endfacet
 facet normal  1.000000e+00 -1.165783e-16  3.600818e-18
   outer loop
     vertex  1.500000e+01  6.044250e+02 -2.813044e+02
     vertex  1.500000e+01  4.350000e+02 -3.400000e+02
     vertex  1.500000e+01  4.494250e+02 -3.663044e+02
   endloop
 endfacet
 facet normal  0.000000e+00 -4.808326e-01 -8.768124e-01
   outer loop
     vertex  1.500000e+01  5.900000e+02  2.550000e+02
     vertex  1.500000e+01  4.350000e+02  3.400000e+02
     vertex  4.796163e-14  4.350000e+02  3.400000e+02
   endloop
 endfacet
 facet normal -0.000000e+00 -4.808326e-01 -8.768124e-01
   outer loop
     vertex  1.500000e+01  5.900000e+02  2.550000e+02
     vertex  4.796163e-14  4.350000e+02  3.400000e+02
     vertex  6.572520e-14  5.900000e+02  2.550000e+02
   endloop
 endfacet
 facet normal -1.000000e+00  1.231445e-16  0.000000e+00
   outer loop
     vertex  4.796163e-14  4.350000e+02 -3.400000e+02
     vertex  4.973799e-14  4.494250e+02 -3.663044e+02
     vertex  4.796163e-14  4.350000e+02 -3.700000e+02
   endloop
 endfacet
 facet normal -1.000000e+00  1.096517e-16  0.000000e+00
   outer loop
     vertex  4.796163e-14  4.350000e+02 -3.400000e+02
     vertex  4.796163e-14  4.350000e+02 -3.700000e+02
     vertex  3.552714e-15  3.000000e+01 -3.700000e+02
   endloop
 endfacet
 facet normal -1.000000e+00  1.096517e-16  0.000000e+00
   outer loop
     vertex  4.796163e-14  4.350000e+02 -3.400000e+02
     vertex  3.552714e-15  3.000000e+01 -3.700000e+02
     vertex  3.552714e-15  3.000000e+01 -3.400000e+02
   endloop
 endfacet
 facet normal -1.000000e+00  1.165783e-16 -3.600818e-18
   outer loop
     vertex  6.572520e-14  5.900000e+02 -2.550000e+02
     vertex  6.750156e-14  6.044250e+02 -2.813044e+02
     vertex  4.973799e-14  4.494250e+02 -3.663044e+02
   endloop
 endfacet
 facet normal -1.000000e+00  1.165783e-16 -3.600818e-18
   outer loop
     vertex  6.572520e-14  5.900000e+02 -2.550000e+02
     vertex  4.973799e-14  4.494250e+02 -3.663044e+02
     vertex  4.796163e-14  4.350000e+02 -3.400000e+02
   endloop
 endfacet
 facet normal -1.000000e+00  1.184238e-16 -2.588780e-18
   outer loop
     vertex  6.927792e-14  6.200000e+02 -2.550000e+02
     vertex  6.750156e-14  6.044250e+02 -2.813044e+02
     vertex  6.572520e-14  5.900000e+02 -2.550000e+02
   endloop
 endfacet
 facet normal -1.000000e+00  1.096517e-16  0.000000e+00
   outer loop
     vertex  4.796163e-14  4.350000e+02  3.700000e+02
     vertex  4.796163e-14  4.350000e+02  3.400000e+02
     vertex  3.552714e-15  3.000000e+01  3.400000e+02
   endloop
 endfacet
 facet normal -1.000000e+00  1.096517e-16  0.000000e+00
   outer loop
     vertex  4.796163e-14  4.350000e+02  3.700000e+02
     vertex  3.552714e-15  3.000000e+01  3.400000e+02
     vertex  3.552714e-15  3.000000e+01  3.700000e+02
   endloop
 endfacet
 facet normal -1.000000e+00  1.231445e-16  0.000000e+00
   outer loop
     vertex  4.973799e-14  4.494250e+02  3.663044e+02
     vertex  4.796163e-14  4.350000e+02  3.400000e+02
     vertex  4.796163e-14  4.350000e+02  3.700000e+02
   endloop
 endfacet
 facet normal -1.000000e+00  1.184238e-16  0.000000e+00
   outer loop
     vertex  6.927792e-14  6.200000e+02  2.550000e+02
     vertex  6.572520e-14  5.900000e+02 -2.550000e+02
     vertex  6.572520e-14  5.900000e+02  2.550000e+02
   endloop
 endfacet
 facet normal -1.000000e+00  1.184238e-16  0.000000e+00
   outer loop
     vertex  6.927792e-14  6.200000e+02  2.550000e+02
     vertex  6.927792e-14  6.200000e+02 -2.550000e+02
     vertex  6.572520e-14  5.900000e+02 -2.550000e+02
   endloop
 endfacet
 facet normal -1.000000e+00  1.165783e-16  3.600818e-18
   outer loop
     vertex  6.750156e-14  6.044250e+02  2.813044e+02
     vertex  6.572520e-14  5.900000e+02  2.550000e+02
     vertex  4.796163e-14  4.350000e+02  3.400000e+02
   endloop
 endfacet
 facet normal -1.000000e+00  1.184238e-16  2.588780e-18
   outer loop
     vertex  6.750156e-14  6.044250e+02  2.813044e+02
     vertex  6.927792e-14  6.200000e+02  2.550000e+02
     vertex  6.572520e-14  5.900000e+02  2.550000e+02
   endloop
 endfacet
 facet normal -1.000000e+00  1.165783e-16  3.600818e-18
   outer loop
     vertex  6.750156e-14  6.044250e+02  2.813044e+02
     vertex  4.796163e-14  4.350000e+02  3.400000e+02
     vertex  4.973799e-14  4.494250e+02  3.663044e+02
   endloop
 endfacet
 facet normal  0.000000e+00 -1.000000e+00  0.000000e+00
   outer loop
     vertex  5.967371e+00  3.000000e+01  3.400000e+02
     vertex  5.967371e+00  3.000000e+01  3.700000e+02
     vertex  3.552714e-15  3.000000e+01  3.700000e+02
   endloop
 endfacet
 facet normal  0.000000e+00 -1.000000e+00  0.000000e+00
   outer loop
     vertex  5.967371e+00  3.000000e+01  3.400000e+02
     vertex  3.552714e-15  3.000000e+01  3.700000e+02
     vertex  3.552714e-15  3.000000e+01  3.400000e+02
   endloop
 endfacet
 facet normal -3.826834e-01 -9.238795e-01  0.000000e+00
   outer loop
     vertex  1.699363e+01  2.543277e+01  3.400000e+02
     vertex  1.699363e+01  2.543277e+01  3.700000e+02
     vertex  5.967371e+00  3.000000e+01  3.700000e+02
   endloop
 endfacet
 facet normal -3.826834e-01 -9.238795e-01  0.000000e+00
   outer loop
     vertex  1.699363e+01  2.543277e+01  3.400000e+02
     vertex  5.967371e+00  3.000000e+01  3.700000e+02
     vertex  5.967371e+00  3.000000e+01  3.400000e+02
   endloop
 endfacet
 facet normal -7.071068e-01 -7.071068e-01  0.000000e+00
   outer loop
     vertex  2.543277e+01  1.699363e+01  3.400000e+02
     vertex  2.543277e+01  1.699363e+01  3.700000e+02
     vertex  1.699363e+01  2.543277e+01  3.700000e+02
   endloop
 endfacet
 facet normal -7.071068e-01 -7.071068e-01  0.000000e+00
   outer loop
     vertex  2.543277e+01  1.699363e+01  3.400000e+02
     vertex  1.699363e+01  2.543277e+01  3.700000e+02
     vertex  1.699363e+01  2.543277e+01  3.400000e+02
   endloop
 endfacet
 facet normal -9.238795e-01 -3.826834e-01  0.000000e+00
   outer loop
     vertex  3.000000e+01  5.967371e+00  3.400000e+02
     vertex  3.000000e+01  5.967371e+00  3.700000e+02
     vertex  2.543277e+01  1.699363e+01  3.700000e+02
   endloop
 endfacet
 facet normal -9.238795e-01 -3.826834e-01  0.000000e+00
   outer loop
     vertex  3.000000e+01  5.967371e+00  3.400000e+02
     vertex  2.543277e+01  1.699363e+01  3.700000e+02
     vertex  2.543277e+01  1.699363e+01  3.400000e+02
   endloop
 endfacet
 facet normal -1.000000e+00  0.000000e+00  0.000000e+00
   outer loop
     vertex  3.000000e+01 -1.065814e-14  3.400000e+02
     vertex  3.000000e+01 -1.065814e-14  3.700000e+02
     vertex  3.000000e+01  5.967371e+00  3.700000e+02
   endloop
 endfacet
 facet normal -1.000000e+00  0.000000e+00  0.000000e+00
   outer loop
     vertex  3.000000e+01 -1.065814e-14  3.400000e+02
     vertex  3.000000e+01  5.967371e+00  3.700000e+02
     vertex  3.000000e+01  5.967371e+00  3.400000e+02
   endloop
 endfacet
 facet normal -2.462890e-16 -1.000000e+00 -0.000000e+00
   outer loop
     vertex  4.350000e+02 -1.456613e-13 -3.400000e+02
     vertex  4.350000e+02 -1.456613e-13 -3.700000e+02
     vertex  4.494250e+02 -1.492140e-13 -3.663044e+02
   endloop
 endfacet
 facet normal -3.333410e-16 -1.000000e+00 -0.000000e+00
   outer loop
     vertex  4.350000e+02 -1.456613e-13 -3.400000e+02
     vertex  3.000000e+01 -1.065814e-14 -3.700000e+02
     vertex  4.350000e+02 -1.456613e-13 -3.700000e+02
   endloop
 endfacet
 facet normal -3.333410e-16 -1.000000e+00  0.000000e+00
   outer loop
     vertex  4.350000e+02 -1.456613e-13 -3.400000e+02
     vertex  3.000000e+01 -1.065814e-14 -3.400000e+02
     vertex  3.000000e+01 -1.065814e-14 -3.700000e+02
   endloop
 endfacet
 facet normal -3.124532e-16 -1.000000e+00 -3.628358e-17
   outer loop
     vertex  5.900000e+02 -1.971756e-13 -2.550000e+02
     vertex  4.494250e+02 -1.492140e-13 -3.663044e+02
     vertex  6.044250e+02 -2.007283e-13 -2.813044e+02
   endloop
 endfacet
 facet normal -3.124532e-16 -1.000000e+00 -3.628358e-17
   outer loop
     vertex  5.900000e+02 -1.971756e-13 -2.550000e+02
     vertex  4.350000e+02 -1.456613e-13 -3.400000e+02
     vertex  4.494250e+02 -1.492140e-13 -3.663044e+02
   endloop
 endfacet
 facet normal -2.960595e-16 -1.000000e+00 -2.729348e-17
   outer loop
     vertex  6.200000e+02 -2.060574e-13 -2.550000e+02
     vertex  5.900000e+02 -1.971756e-13 -2.550000e+02
     vertex  6.044250e+02 -2.007283e-13 -2.813044e+02
   endloop
 endfacet
 facet normal -3.333410e-16 -1.000000e+00 -0.000000e+00
   outer loop
     vertex  4.350000e+02 -1.456613e-13  3.700000e+02
     vertex  3.000000e+01 -1.065814e-14  3.400000e+02
     vertex  4.350000e+02 -1.456613e-13  3.400000e+02
   endloop
 endfacet
 facet normal -3.333410e-16 -1.000000e+00  0.000000e+00
   outer loop
     vertex  4.350000e+02 -1.456613e-13  3.700000e+02
     vertex  3.000000e+01 -1.065814e-14  3.700000e+02
     vertex  3.000000e+01 -1.065814e-14  3.400000e+02
   endloop
 endfacet
 facet normal -2.462890e-16 -1.000000e+00  0.000000e+00
   outer loop
     vertex  4.494250e+02 -1.492140e-13  3.663044e+02
     vertex  4.350000e+02 -1.456613e-13  3.700000e+02
     vertex  4.350000e+02 -1.456613e-13  3.400000e+02
   endloop
 endfacet
 facet normal -2.960595e-16 -1.000000e+00  0.000000e+00
   outer loop
     vertex  6.200000e+02 -2.060574e-13  2.550000e+02
     vertex  5.900000e+02 -1.971756e-13  2.550000e+02
     vertex  5.900000e+02 -1.971756e-13 -2.550000e+02
   endloop
 endfacet
 facet normal -2.960595e-16 -1.000000e+00 -0.000000e+00
   outer loop
     vertex  6.200000e+02 -2.060574e-13  2.550000e+02
     vertex  5.900000e+02 -1.971756e-13 -2.550000e+02
     vertex  6.200000e+02 -2.060574e-13 -2.550000e+02
   endloop
 endfacet
 facet normal -3.124532e-16 -1.000000e+00  3.628358e-17
   outer loop
     vertex  6.044250e+02 -2.007283e-13  2.813044e+02
     vertex  4.350000e+02 -1.456613e-13  3.400000e+02
     vertex  5.900000e+02 -1.971756e-13  2.550000e+02
   endloop
 endfacet
 facet normal -2.960595e-16 -1.000000e+00  2.729348e-17
   outer loop
     vertex  6.044250e+02 -2.007283e-13  2.813044e+02
     vertex  5.900000e+02 -1.971756e-13  2.550000e+02
     vertex  6.200000e+02 -2.060574e-13  2.550000e+02
   endloop
 endfacet
 facet normal -3.124532e-16 -1.000000e+00  3.628358e-17
   outer loop
     vertex  6.044250e+02 -2.007283e-13  2.813044e+02
     vertex  4.494250e+02 -1.492140e-13  3.663044e+02
     vertex  4.350000e+02 -1.456613e-13  3.400000e+02
   endloop
 endfacet
 facet normal -1.000000e+00  0.000000e+00  0.000000e+00
   outer loop
     vertex  5.900000e+02 -1.971756e-13 -2.550000e+02
     vertex  5.900000e+02 -1.971756e-13  2.550000e+02
     vertex  5.900000e+02  1.500000e+01  2.550000e+02
   endloop
 endfacet
 facet normal -1.000000e+00  0.000000e+00  0.000000e+00
   outer loop
     vertex  5.900000e+02 -1.971756e-13 -2.550000e+02
     vertex  5.900000e+02  1.500000e+01  2.550000e+02
     vertex  5.900000e+02  1.500000e+01 -2.550000e+02
   endloop
 endfacet
 facet normal -0.000000e+00  0.000000e+00  1.000000e+00
   outer loop
     vertex  7.541009e+01  1.500000e+01  3.700000e+02
     vertex  4.350000e+02 -1.456613e-13  3.700000e+02
     vertex  4.350000e+02  1.500000e+01  3.700000e+02
   endloop
 endfacet
 facet normal  0.000000e+00  0.000000e+00  1.000000e+00
   outer loop
     vertex  7.541009e+01  1.500000e+01  3.700000e+02
     vertex  4.076278e+02  1.526091e+02  3.700000e+02
     vertex  3.961473e+02  1.803255e+02  3.700000e+02
   endloop
 endfacet
 facet normal  0.000000e+00  0.000000e+00  1.000000e+00
   outer loop
     vertex  6.392959e+01  4.271639e+01  3.700000e+02
     vertex  3.181981e+02  2.969848e+02  3.700000e+02
     vertex  2.969848e+02  3.181981e+02  3.700000e+02
   endloop
 endfacet
 facet normal -0.000000e+00  0.000000e+00  1.000000e+00
   outer loop
     vertex  6.392959e+01  4.271639e+01  3.700000e+02
     vertex  7.541009e+01  1.500000e+01  3.700000e+02
     vertex  3.961473e+02  1.803255e+02  3.700000e+02
   endloop
 endfacet
 facet normal -0.000000e+00  0.000000e+00  1.000000e+00
   outer loop
     vertex  4.271639e+01  6.392959e+01  3.700000e+02
     vertex  6.392959e+01  4.271639e+01  3.700000e+02
     vertex  2.969848e+02  3.181981e+02  3.700000e+02
   endloop
 endfacet
 facet normal -0.000000e+00  0.000000e+00  1.000000e+00
   outer loop
     vertex  1.500000e+01  7.541009e+01  3.700000e+02
     vertex  4.271639e+01  6.392959e+01  3.700000e+02
     vertex  1.803255e+02  3.961473e+02  3.700000e+02
   endloop
 endfacet
 facet normal  0.000000e+00  0.000000e+00  1.000000e+00
   outer loop
     vertex  1.500000e+01  7.541009e+01  3.700000e+02
     vertex  1.803255e+02  3.961473e+02  3.700000e+02
     vertex  1.526091e+02  4.076278e+02  3.700000e+02
   endloop
 endfacet
 facet normal  0.000000e+00 -0.000000e+00  1.000000e+00
   outer loop
     vertex  1.500000e+01  7.541009e+01  3.700000e+02
     vertex  1.500000e+01  4.350000e+02  3.700000e+02
     vertex  4.796163e-14  4.350000e+02  3.700000e+02
   endloop
 endfacet
 facet normal  0.000000e+00  0.000000e+00  1.000000e+00
   outer loop
     vertex  3.000000e+01  5.967371e+00  3.700000e+02
     vertex  7.541009e+01  1.500000e+01  3.700000e+02
     vertex  6.392959e+01  4.271639e+01  3.700000e+02
   endloop
 endfacet
 facet normal  0.000000e+00 -0.000000e+00  1.000000e+00
   outer loop
     vertex  3.000000e+01  5.967371e+00  3.700000e+02
     vertex  6.392959e+01  4.271639e+01  3.700000e+02
     vertex  2.543277e+01  1.699363e+01  3.700000e+02
   endloop
 endfacet
 facet normal  0.000000e+00  0.000000e+00  1.000000e+00
   outer loop
     vertex  3.000000e+01 -1.065814e-14  3.700000e+02
     vertex  7.541009e+01  1.500000e+01  3.700000e+02
     vertex  3.000000e+01  5.967371e+00  3.700000e+02
   endloop
 endfacet
 facet normal  0.000000e+00  0.000000e+00  1.000000e+00
   outer loop
     vertex  1.699363e+01  2.543277e+01  3.700000e+02
     vertex  6.392959e+01  4.271639e+01  3.700000e+02
     vertex  4.271639e+01  6.392959e+01  3.700000e+02
   endloop
 endfacet
 facet normal -0.000000e+00  0.000000e+00  1.000000e+00
   outer loop
     vertex  1.699363e+01  2.543277e+01  3.700000e+02
     vertex  2.543277e+01  1.699363e+01  3.700000e+02
     vertex  6.392959e+01  4.271639e+01  3.700000e+02
   endloop
 endfacet
 facet normal  0.000000e+00  0.000000e+00  1.000000e+00
   outer loop
     vertex  5.967371e+00  3.000000e+01  3.700000e+02
     vertex  4.271639e+01  6.392959e+01  3.700000e+02
     vertex  1.500000e+01  7.541009e+01  3.700000e+02
   endloop
 endfacet
 facet normal -0.000000e+00  0.000000e+00  1.000000e+00
   outer loop
     vertex  5.967371e+00  3.000000e+01  3.700000e+02
     vertex  1.699363e+01  2.543277e+01  3.700000e+02
     vertex  4.271639e+01  6.392959e+01  3.700000e+02
   endloop
 endfacet
 facet normal  0.000000e+00  0.000000e+00  1.000000e+00
   outer loop
     vertex  3.552714e-15  3.000000e+01  3.700000e+02
     vertex  1.500000e+01  7.541009e+01  3.700000e+02
     vertex  4.796163e-14  4.350000e+02  3.700000e+02
   endloop
 endfacet
 facet normal  0.000000e+00  0.000000e+00  1.000000e+00
   outer loop
     vertex  3.552714e-15  3.000000e+01  3.700000e+02
     vertex  5.967371e+00  3.000000e+01  3.700000e+02
     vertex  1.500000e+01  7.541009e+01  3.700000e+02
   endloop
 endfacet
 facet normal -0.000000e+00  0.000000e+00  1.000000e+00
   outer loop
     vertex  3.000000e+01 -1.065814e-14  3.700000e+02
     vertex  4.350000e+02 -1.456613e-13  3.700000e+02
     vertex  7.541009e+01  1.500000e+01  3.700000e+02
   endloop
 endfacet
 facet normal  2.481810e-01  0.000000e+00  9.687137e-01
   outer loop
     vertex  4.350000e+02 -1.456613e-13  3.700000e+02
     vertex  4.494250e+02 -1.492140e-13  3.663044e+02
     vertex  4.494250e+02  1.500000e+01  3.663044e+02
   endloop
 endfacet
 facet normal  2.481810e-01 -0.000000e+00  9.687137e-01
   outer loop
     vertex  4.350000e+02 -1.456613e-13  3.700000e+02
     vertex  4.494250e+02  1.500000e+01  3.663044e+02
     vertex  4.350000e+02  1.500000e+01  3.700000e+02
   endloop
 endfacet
 facet normal  4.808326e-01  0.000000e+00  8.768124e-01
   outer loop
     vertex  4.494250e+02 -1.492140e-13  3.663044e+02
     vertex  6.044250e+02 -2.007283e-13  2.813044e+02
     vertex  6.044250e+02  1.500000e+01  2.813044e+02
   endloop
 endfacet
 facet normal  4.808326e-01 -0.000000e+00  8.768124e-01
   outer loop
     vertex  4.494250e+02 -1.492140e-13  3.663044e+02
     vertex  6.044250e+02  1.500000e+01  2.813044e+02
     vertex  4.494250e+02  1.500000e+01  3.663044e+02
   endloop
 endfacet
 facet normal  8.604745e-01  0.000000e+00  5.094936e-01
   outer loop
     vertex  6.044250e+02  1.500000e+01  2.813044e+02
     vertex  6.200000e+02 -2.060574e-13  2.550000e+02
     vertex  6.200000e+02  1.500000e+01  2.550000e+02
   endloop
 endfacet
 facet normal  8.604745e-01 -0.000000e+00  5.094936e-01
   outer loop
     vertex  6.044250e+02 -2.007283e-13  2.813044e+02
     vertex  6.200000e+02 -2.060574e-13  2.550000e+02
     vertex  6.044250e+02  1.500000e+01  2.813044e+02
   endloop
 endfacet
 facet normal  1.000000e+00  0.000000e+00  0.000000e+00
   outer loop
     vertex  6.200000e+02 -2.060574e-13  2.550000e+02
     vertex  6.200000e+02 -2.060574e-13 -2.550000e+02
     vertex  6.200000e+02  1.500000e+01 -2.550000e+02
   endloop
 endfacet
 facet normal  1.000000e+00 -0.000000e+00  0.000000e+00
   outer loop
     vertex  6.200000e+02 -2.060574e-13  2.550000e+02
     vertex  6.200000e+02  1.500000e+01 -2.550000e+02
     vertex  6.200000e+02  1.500000e+01  2.550000e+02
   endloop
 endfacet
 facet normal  8.604745e-01  0.000000e+00 -5.094936e-01
   outer loop
     vertex  6.200000e+02  1.500000e+01 -2.550000e+02
     vertex  6.044250e+02 -2.007283e-13 -2.813044e+02
     vertex  6.044250e+02  1.500000e+01 -2.813044e+02
   endloop
 endfacet
 facet normal  8.604745e-01  0.000000e+00 -5.094936e-01
   outer loop
     vertex  6.200000e+02 -2.060574e-13 -2.550000e+02
     vertex  6.044250e+02 -2.007283e-13 -2.813044e+02
     vertex  6.200000e+02  1.500000e+01 -2.550000e+02
   endloop
 endfacet
 facet normal  4.808326e-01  0.000000e+00 -8.768124e-01
   outer loop
     vertex  6.044250e+02 -2.007283e-13 -2.813044e+02
     vertex  4.494250e+02 -1.492140e-13 -3.663044e+02
     vertex  4.494250e+02  1.500000e+01 -3.663044e+02
   endloop
 endfacet
 facet normal  4.808326e-01  0.000000e+00 -8.768124e-01
   outer loop
     vertex  6.044250e+02 -2.007283e-13 -2.813044e+02
     vertex  4.494250e+02  1.500000e+01 -3.663044e+02
     vertex  6.044250e+02  1.500000e+01 -2.813044e+02
   endloop
 endfacet
 facet normal  2.481810e-01  0.000000e+00 -9.687137e-01
   outer loop
     vertex  4.494250e+02 -1.492140e-13 -3.663044e+02
     vertex  4.350000e+02 -1.456613e-13 -3.700000e+02
     vertex  4.350000e+02  1.500000e+01 -3.700000e+02
   endloop
 endfacet
 facet normal  2.481810e-01  0.000000e+00 -9.687137e-01
   outer loop
     vertex  4.494250e+02 -1.492140e-13 -3.663044e+02
     vertex  4.350000e+02  1.500000e+01 -3.700000e+02
     vertex  4.494250e+02  1.500000e+01 -3.663044e+02
   endloop
 endfacet
 facet normal  0.000000e+00  0.000000e+00 -1.000000e+00
   outer loop
     vertex  1.500000e+01  7.541009e+01 -3.700000e+02
     vertex  4.796163e-14  4.350000e+02 -3.700000e+02
     vertex  1.500000e+01  4.350000e+02 -3.700000e+02
   endloop
 endfacet
 facet normal  0.000000e+00  0.000000e+00 -1.000000e+00
   outer loop
     vertex  4.271639e+01  6.392959e+01 -3.700000e+02
     vertex  1.500000e+01  7.541009e+01 -3.700000e+02
     vertex  1.526091e+02  4.076278e+02 -3.700000e+02
   endloop
 endfacet
 facet normal  0.000000e+00  0.000000e+00 -1.000000e+00
   outer loop
     vertex  4.271639e+01  6.392959e+01 -3.700000e+02
     vertex  1.526091e+02  4.076278e+02 -3.700000e+02
     vertex  1.803255e+02  3.961473e+02 -3.700000e+02
   endloop
 endfacet
 facet normal  0.000000e+00  0.000000e+00 -1.000000e+00
   outer loop
     vertex  3.552714e-15  3.000000e+01 -3.700000e+02
     vertex  4.796163e-14  4.350000e+02 -3.700000e+02
     vertex  1.500000e+01  7.541009e+01 -3.700000e+02
   endloop
 endfacet
 facet normal  0.000000e+00  0.000000e+00 -1.000000e+00
   outer loop
     vertex  5.967371e+00  3.000000e+01 -3.700000e+02
     vertex  3.552714e-15  3.000000e+01 -3.700000e+02
     vertex  1.500000e+01  7.541009e+01 -3.700000e+02
   endloop
 endfacet
 facet normal  0.000000e+00  0.000000e+00 -1.000000e+00
   outer loop
     vertex  1.699363e+01  2.543277e+01 -3.700000e+02
     vertex  1.500000e+01  7.541009e+01 -3.700000e+02
     vertex  4.271639e+01  6.392959e+01 -3.700000e+02
   endloop
 endfacet
 facet normal  0.000000e+00  0.000000e+00 -1.000000e+00
   outer loop
     vertex  1.699363e+01  2.543277e+01 -3.700000e+02
     vertex  5.967371e+00  3.000000e+01 -3.700000e+02
     vertex  1.500000e+01  7.541009e+01 -3.700000e+02
   endloop
 endfacet
 facet normal  0.000000e+00  0.000000e+00 -1.000000e+00
   outer loop
     vertex  6.392959e+01  4.271639e+01 -3.700000e+02
     vertex  4.271639e+01  6.392959e+01 -3.700000e+02
     vertex  2.969848e+02  3.181981e+02 -3.700000e+02
   endloop
 endfacet
 facet normal  0.000000e+00  0.000000e+00 -1.000000e+00
   outer loop
     vertex  6.392959e+01  4.271639e+01 -3.700000e+02
     vertex  2.969848e+02  3.181981e+02 -3.700000e+02
     vertex  3.181981e+02  2.969848e+02 -3.700000e+02
   endloop
 endfacet
 facet normal -0.000000e+00  0.000000e+00 -1.000000e+00
   outer loop
     vertex  6.392959e+01  4.271639e+01 -3.700000e+02
     vertex  1.699363e+01  2.543277e+01 -3.700000e+02
     vertex  4.271639e+01  6.392959e+01 -3.700000e+02
   endloop
 endfacet
 facet normal  0.000000e+00  0.000000e+00 -1.000000e+00
   outer loop
     vertex  2.543277e+01  1.699363e+01 -3.700000e+02
     vertex  1.699363e+01  2.543277e+01 -3.700000e+02
     vertex  6.392959e+01  4.271639e+01 -3.700000e+02
   endloop
 endfacet
 facet normal  0.000000e+00  0.000000e+00 -1.000000e+00
   outer loop
     vertex  7.541009e+01  1.500000e+01 -3.700000e+02
     vertex  3.000000e+01 -1.065814e-14 -3.700000e+02
     vertex  3.000000e+01  5.967371e+00 -3.700000e+02
   endloop
 endfacet
 facet normal -0.000000e+00  0.000000e+00 -1.000000e+00
   outer loop
     vertex  7.541009e+01  1.500000e+01 -3.700000e+02
     vertex  3.000000e+01  5.967371e+00 -3.700000e+02
     vertex  2.543277e+01  1.699363e+01 -3.700000e+02
   endloop
 endfacet
 facet normal  0.000000e+00  0.000000e+00 -1.000000e+00
   outer loop
     vertex  7.541009e+01  1.500000e+01 -3.700000e+02
     vertex  2.543277e+01  1.699363e+01 -3.700000e+02
     vertex  6.392959e+01  4.271639e+01 -3.700000e+02
   endloop
 endfacet
 facet normal -0.000000e+00  0.000000e+00 -1.000000e+00
   outer loop
     vertex  4.076278e+02  1.526091e+02 -3.700000e+02
     vertex  6.392959e+01  4.271639e+01 -3.700000e+02
     vertex  3.961473e+02  1.803255e+02 -3.700000e+02
   endloop
 endfacet
 facet normal  0.000000e+00  0.000000e+00 -1.000000e+00
   outer loop
     vertex  4.076278e+02  1.526091e+02 -3.700000e+02
     vertex  7.541009e+01  1.500000e+01 -3.700000e+02
     vertex  6.392959e+01  4.271639e+01 -3.700000e+02
   endloop
 endfacet
 facet normal  0.000000e+00  0.000000e+00 -1.000000e+00
   outer loop
     vertex  4.350000e+02 -1.456613e-13 -3.700000e+02
     vertex  7.541009e+01  1.500000e+01 -3.700000e+02
     vertex  4.350000e+02  1.500000e+01 -3.700000e+02
   endloop
 endfacet
 facet normal  0.000000e+00  0.000000e+00 -1.000000e+00
   outer loop
     vertex  4.350000e+02 -1.456613e-13 -3.700000e+02
     vertex  3.000000e+01 -1.065814e-14 -3.700000e+02
     vertex  7.541009e+01  1.500000e+01 -3.700000e+02
   endloop
 endfacet
 facet normal -0.000000e+00  0.000000e+00  1.000000e+00
   outer loop
     vertex  7.541009e+01  1.500000e+01 -3.400000e+02
     vertex  4.350000e+02 -1.456613e-13 -3.400000e+02
     vertex  4.350000e+02  1.500000e+01 -3.400000e+02
   endloop
 endfacet
 facet normal -0.000000e+00  0.000000e+00  1.000000e+00
   outer loop
     vertex  6.392959e+01  4.271639e+01 -3.400000e+02
     vertex  7.541009e+01  1.500000e+01 -3.400000e+02
     vertex  4.076278e+02  1.526091e+02 -3.400000e+02
   endloop
 endfacet
 facet normal  0.000000e+00  0.000000e+00  1.000000e+00
   outer loop
     vertex  6.392959e+01  4.271639e+01 -3.400000e+02
     vertex  4.076278e+02  1.526091e+02 -3.400000e+02
     vertex  3.961473e+02  1.803255e+02 -3.400000e+02
   endloop
 endfacet
 facet normal -0.000000e+00  0.000000e+00  1.000000e+00
   outer loop
     vertex  4.271639e+01  6.392959e+01 -3.400000e+02
     vertex  6.392959e+01  4.271639e+01 -3.400000e+02
     vertex  3.181981e+02  2.969848e+02 -3.400000e+02
   endloop
 endfacet
 facet normal  0.000000e+00  0.000000e+00  1.000000e+00
   outer loop
     vertex  4.271639e+01  6.392959e+01 -3.400000e+02
     vertex  3.181981e+02  2.969848e+02 -3.400000e+02
     vertex  2.969848e+02  3.181981e+02 -3.400000e+02
   endloop
 endfacet
 facet normal -0.000000e+00  0.000000e+00  1.000000e+00
   outer loop
     vertex  1.500000e+01  7.541009e+01 -3.400000e+02
     vertex  4.271639e+01  6.392959e+01 -3.400000e+02
     vertex  1.803255e+02  3.961473e+02 -3.400000e+02
   endloop
 endfacet
 facet normal  0.000000e+00  0.000000e+00  1.000000e+00
   outer loop
     vertex  1.500000e+01  7.541009e+01 -3.400000e+02
     vertex  1.803255e+02  3.961473e+02 -3.400000e+02
     vertex  1.526091e+02  4.076278e+02 -3.400000e+02
   endloop
 endfacet
 facet normal  0.000000e+00 -0.000000e+00  1.000000e+00
   outer loop
     vertex  1.500000e+01  7.541009e+01 -3.400000e+02
     vertex  1.500000e+01  4.350000e+02 -3.400000e+02
     vertex  4.796163e-14  4.350000e+02 -3.400000e+02
   endloop
 endfacet
 facet normal  0.000000e+00  0.000000e+00  1.000000e+00
   outer loop
     vertex  3.000000e+01  5.967371e+00 -3.400000e+02
     vertex  7.541009e+01  1.500000e+01 -3.400000e+02
     vertex  6.392959e+01  4.271639e+01 -3.400000e+02
   endloop
 endfacet
 facet normal  0.000000e+00 -0.000000e+00  1.000000e+00
   outer loop
     vertex  3.000000e+01  5.967371e+00 -3.400000e+02
     vertex  6.392959e+01  4.271639e+01 -3.400000e+02
     vertex  2.543277e+01  1.699363e+01 -3.400000e+02
   endloop
 endfacet
 facet normal  0.000000e+00  0.000000e+00  1.000000e+00
   outer loop
     vertex  3.000000e+01 -1.065814e-14 -3.400000e+02
     vertex  7.541009e+01  1.500000e+01 -3.400000e+02
     vertex  3.000000e+01  5.967371e+00 -3.400000e+02
   endloop
 endfacet
 facet normal  0.000000e+00  0.000000e+00  1.000000e+00
   outer loop
     vertex  1.699363e+01  2.543277e+01 -3.400000e+02
     vertex  6.392959e+01  4.271639e+01 -3.400000e+02
     vertex  4.271639e+01  6.392959e+01 -3.400000e+02
   endloop
 endfacet
 facet normal -0.000000e+00  0.000000e+00  1.000000e+00
   outer loop
     vertex  1.699363e+01  2.543277e+01 -3.400000e+02
     vertex  2.543277e+01  1.699363e+01 -3.400000e+02
     vertex  6.392959e+01  4.271639e+01 -3.400000e+02
   endloop
 endfacet
 facet normal  0.000000e+00  0.000000e+00  1.000000e+00
   outer loop
     vertex  5.967371e+00  3.000000e+01 -3.400000e+02
     vertex  4.271639e+01  6.392959e+01 -3.400000e+02
     vertex  1.500000e+01  7.541009e+01 -3.400000e+02
   endloop
 endfacet
 facet normal -0.000000e+00  0.000000e+00  1.000000e+00
   outer loop
     vertex  5.967371e+00  3.000000e+01 -3.400000e+02
     vertex  1.699363e+01  2.543277e+01 -3.400000e+02
     vertex  4.271639e+01  6.392959e+01 -3.400000e+02
   endloop
 endfacet
 facet normal  0.000000e+00  0.000000e+00  1.000000e+00
   outer loop
     vertex  3.552714e-15  3.000000e+01 -3.400000e+02
     vertex  1.500000e+01  7.541009e+01 -3.400000e+02
     vertex  4.796163e-14  4.350000e+02 -3.400000e+02
   endloop
 endfacet
 facet normal  0.000000e+00  0.000000e+00  1.000000e+00
   outer loop
     vertex  3.552714e-15  3.000000e+01 -3.400000e+02
     vertex  5.967371e+00  3.000000e+01 -3.400000e+02
     vertex  1.500000e+01  7.541009e+01 -3.400000e+02
   endloop
 endfacet
 facet normal -0.000000e+00  0.000000e+00  1.000000e+00
   outer loop
     vertex  3.000000e+01 -1.065814e-14 -3.400000e+02
     vertex  4.350000e+02 -1.456613e-13 -3.400000e+02
     vertex  7.541009e+01  1.500000e+01 -3.400000e+02
   endloop
 endfacet
 facet normal -4.808326e-01  0.000000e+00  8.768124e-01
   outer loop
     vertex  4.350000e+02 -1.456613e-13 -3.400000e+02
     vertex  5.900000e+02 -1.971756e-13 -2.550000e+02
     vertex  5.900000e+02  1.500000e+01 -2.550000e+02
   endloop
 endfacet
 facet normal -4.808326e-01  0.000000e+00  8.768124e-01
   outer loop
     vertex  4.350000e+02 -1.456613e-13 -3.400000e+02
     vertex  5.900000e+02  1.500000e+01 -2.550000e+02
     vertex  4.350000e+02  1.500000e+01 -3.400000e+02
   endloop
 endfacet
 facet normal  2.292893e-01  9.497475e-02  9.687137e-01
   outer loop
     vertex  4.076278e+02  1.526091e+02  3.700000e+02
     vertex  4.209548e+02  1.581293e+02  3.663044e+02
     vertex  4.094743e+02  1.858457e+02  3.663044e+02
   endloop
 endfacet
 facet normal  2.292893e-01  9.497475e-02  9.687137e-01
   outer loop
     vertex  4.076278e+02  1.526091e+02  3.700000e+02
     vertex  4.094743e+02  1.858457e+02  3.663044e+02
     vertex  3.961473e+02  1.803255e+02  3.700000e+02
   endloop
 endfacet
 facet normal  4.442314e-01  1.840067e-01  8.768124e-01
   outer loop
     vertex  4.209548e+02  1.581293e+02  3.663044e+02
     vertex  5.641561e+02  2.174452e+02  2.813044e+02
     vertex  5.526756e+02  2.451616e+02  2.813044e+02
   endloop
 endfacet
 facet normal  4.442314e-01  1.840067e-01  8.768124e-01
   outer loop
     vertex  4.209548e+02  1.581293e+02  3.663044e+02
     vertex  5.526756e+02  2.451616e+02  2.813044e+02
     vertex  4.094743e+02  1.858457e+02  3.663044e+02
   endloop
 endfacet
 facet normal  7.949747e-01  3.292893e-01  5.094936e-01
   outer loop
     vertex  5.641561e+02  2.174452e+02  2.813044e+02
     vertex  5.785456e+02  2.234055e+02  2.550000e+02
     vertex  5.670651e+02  2.511219e+02  2.550000e+02
   endloop
 endfacet
 facet normal  7.949747e-01  3.292893e-01  5.094936e-01
   outer loop
     vertex  5.641561e+02  2.174452e+02  2.813044e+02
     vertex  5.670651e+02  2.511219e+02  2.550000e+02
     vertex  5.526756e+02  2.451616e+02  2.813044e+02
   endloop
 endfacet
 facet normal  9.238795e-01  3.826834e-01  0.000000e+00
   outer loop
     vertex  5.785456e+02  2.234055e+02  2.550000e+02
     vertex  5.785456e+02  2.234055e+02 -2.550000e+02
     vertex  5.670651e+02  2.511219e+02 -2.550000e+02
   endloop
 endfacet
 facet normal  9.238795e-01  3.826834e-01  0.000000e+00
   outer loop
     vertex  5.785456e+02  2.234055e+02  2.550000e+02
     vertex  5.670651e+02  2.511219e+02 -2.550000e+02
     vertex  5.670651e+02  2.511219e+02  2.550000e+02
   endloop
 endfacet
 facet normal  7.949747e-01  3.292893e-01 -5.094936e-01
   outer loop
     vertex  5.670651e+02  2.511219e+02 -2.550000e+02
     vertex  5.641561e+02  2.174452e+02 -2.813044e+02
     vertex  5.526756e+02  2.451616e+02 -2.813044e+02
   endloop
 endfacet
 facet normal  7.949747e-01  3.292893e-01 -5.094936e-01
   outer loop
     vertex  5.785456e+02  2.234055e+02 -2.550000e+02
     vertex  5.641561e+02  2.174452e+02 -2.813044e+02
     vertex  5.670651e+02  2.511219e+02 -2.550000e+02
   endloop
 endfacet
 facet normal  4.442314e-01  1.840067e-01 -8.768124e-01
   outer loop
     vertex  5.526756e+02  2.451616e+02 -2.813044e+02
     vertex  4.209548e+02  1.581293e+02 -3.663044e+02
     vertex  4.094743e+02  1.858457e+02 -3.663044e+02
   endloop
 endfacet
 facet normal  4.442314e-01  1.840067e-01 -8.768124e-01
   outer loop
     vertex  5.641561e+02  2.174452e+02 -2.813044e+02
     vertex  4.209548e+02  1.581293e+02 -3.663044e+02
     vertex  5.526756e+02  2.451616e+02 -2.813044e+02
   endloop
 endfacet
 facet normal  2.292893e-01  9.497475e-02 -9.687137e-01
   outer loop
     vertex  4.076278e+02  1.526091e+02 -3.700000e+02
     vertex  3.961473e+02  1.803255e+02 -3.700000e+02
     vertex  4.094743e+02  1.858457e+02 -3.663044e+02
   endloop
 endfacet
 facet normal  2.292893e-01  9.497475e-02 -9.687137e-01
   outer loop
     vertex  4.209548e+02  1.581293e+02 -3.663044e+02
     vertex  4.076278e+02  1.526091e+02 -3.700000e+02
     vertex  4.094743e+02  1.858457e+02 -3.663044e+02
   endloop
 endfacet
 facet normal -4.442314e-01 -1.840067e-01  8.768124e-01
   outer loop
     vertex  4.076278e+02  1.526091e+02 -3.400000e+02
     vertex  5.508292e+02  2.119250e+02 -2.550000e+02
     vertex  5.393487e+02  2.396414e+02 -2.550000e+02
   endloop
 endfacet
 facet normal -4.442314e-01 -1.840067e-01  8.768124e-01
   outer loop
     vertex  4.076278e+02  1.526091e+02 -3.400000e+02
     vertex  5.393487e+02  2.396414e+02 -2.550000e+02
     vertex  3.961473e+02  1.803255e+02 -3.400000e+02
   endloop
 endfacet
 facet normal -9.238795e-01 -3.826834e-01  0.000000e+00
   outer loop
     vertex  5.508292e+02  2.119250e+02 -2.550000e+02
     vertex  5.508292e+02  2.119250e+02  2.550000e+02
     vertex  5.393487e+02  2.396414e+02  2.550000e+02
   endloop
 endfacet
 facet normal -9.238795e-01 -3.826834e-01  0.000000e+00
   outer loop
     vertex  5.508292e+02  2.119250e+02 -2.550000e+02
     vertex  5.393487e+02  2.396414e+02  2.550000e+02
     vertex  5.393487e+02  2.396414e+02 -2.550000e+02
   endloop
 endfacet
 facet normal  1.754904e-01  1.754904e-01  9.687137e-01
   outer loop
     vertex  3.283981e+02  3.071848e+02  3.663044e+02
     vertex  3.071848e+02  3.283981e+02  3.663044e+02
     vertex  2.969848e+02  3.181981e+02  3.700000e+02
   endloop
 endfacet
 facet normal  1.754904e-01  1.754904e-01  9.687137e-01
   outer loop
     vertex  3.181981e+02  2.969848e+02  3.700000e+02
     vertex  3.283981e+02  3.071848e+02  3.663044e+02
     vertex  2.969848e+02  3.181981e+02  3.700000e+02
   endloop
 endfacet
 facet normal  3.400000e-01  3.400000e-01  8.768124e-01
   outer loop
     vertex  3.071848e+02  3.283981e+02  3.663044e+02
     vertex  4.379996e+02  4.167864e+02  2.813044e+02
     vertex  4.167864e+02  4.379996e+02  2.813044e+02
   endloop
 endfacet
 facet normal  3.400000e-01  3.400000e-01  8.768124e-01
   outer loop
     vertex  3.283981e+02  3.071848e+02  3.663044e+02
     vertex  4.379996e+02  4.167864e+02  2.813044e+02
     vertex  3.071848e+02  3.283981e+02  3.663044e+02
   endloop
 endfacet
 facet normal  6.084473e-01  6.084473e-01  5.094936e-01
   outer loop
     vertex  4.167864e+02  4.379996e+02  2.813044e+02
     vertex  4.490128e+02  4.277996e+02  2.550000e+02
     vertex  4.277996e+02  4.490128e+02  2.550000e+02
   endloop
 endfacet
 facet normal  6.084473e-01  6.084473e-01  5.094936e-01
   outer loop
     vertex  4.379996e+02  4.167864e+02  2.813044e+02
     vertex  4.490128e+02  4.277996e+02  2.550000e+02
     vertex  4.167864e+02  4.379996e+02  2.813044e+02
   endloop
 endfacet
 facet normal  7.071068e-01  7.071068e-01  0.000000e+00
   outer loop
     vertex  4.490128e+02  4.277996e+02  2.550000e+02
     vertex  4.490128e+02  4.277996e+02 -2.550000e+02
     vertex  4.277996e+02  4.490128e+02 -2.550000e+02
   endloop
 endfacet
 facet normal  7.071068e-01  7.071068e-01  0.000000e+00
   outer loop
     vertex  4.490128e+02  4.277996e+02  2.550000e+02
     vertex  4.277996e+02  4.490128e+02 -2.550000e+02
     vertex  4.277996e+02  4.490128e+02  2.550000e+02
   endloop
 endfacet
 facet normal  6.084473e-01  6.084473e-01 -5.094936e-01
   outer loop
     vertex  4.490128e+02  4.277996e+02 -2.550000e+02
     vertex  4.379996e+02  4.167864e+02 -2.813044e+02
     vertex  4.167864e+02  4.379996e+02 -2.813044e+02
   endloop
 endfacet
 facet normal  6.084473e-01  6.084473e-01 -5.094936e-01
   outer loop
     vertex  4.490128e+02  4.277996e+02 -2.550000e+02
     vertex  4.167864e+02  4.379996e+02 -2.813044e+02
     vertex  4.277996e+02  4.490128e+02 -2.550000e+02
   endloop
 endfacet
 facet normal  3.400000e-01  3.400000e-01 -8.768124e-01
   outer loop
     vertex  4.379996e+02  4.167864e+02 -2.813044e+02
     vertex  3.283981e+02  3.071848e+02 -3.663044e+02
     vertex  3.071848e+02  3.283981e+02 -3.663044e+02
   endloop
 endfacet
 facet normal  3.400000e-01  3.400000e-01 -8.768124e-01
   outer loop
     vertex  4.379996e+02  4.167864e+02 -2.813044e+02
     vertex  3.071848e+02  3.283981e+02 -3.663044e+02
     vertex  4.167864e+02  4.379996e+02 -2.813044e+02
   endloop
 endfacet
 facet normal  1.754904e-01  1.754904e-01 -9.687137e-01
   outer loop
     vertex  3.283981e+02  3.071848e+02 -3.663044e+02
     vertex  3.181981e+02  2.969848e+02 -3.700000e+02
     vertex  2.969848e+02  3.181981e+02 -3.700000e+02
   endloop
 endfacet
 facet normal  1.754904e-01  1.754904e-01 -9.687137e-01
   outer loop
     vertex  3.283981e+02  3.071848e+02 -3.663044e+02
     vertex  2.969848e+02  3.181981e+02 -3.700000e+02
     vertex  3.071848e+02  3.283981e+02 -3.663044e+02
   endloop
 endfacet
 facet normal -3.400000e-01 -3.400000e-01  8.768124e-01
   outer loop
     vertex  2.969848e+02  3.181981e+02 -3.400000e+02
     vertex  4.277996e+02  4.065864e+02 -2.550000e+02
     vertex  4.065864e+02  4.277996e+02 -2.550000e+02
   endloop
 endfacet
 facet normal -3.400000e-01 -3.400000e-01  8.768124e-01
   outer loop
     vertex  3.181981e+02  2.969848e+02 -3.400000e+02
     vertex  4.277996e+02  4.065864e+02 -2.550000e+02
     vertex  2.969848e+02  3.181981e+02 -3.400000e+02
   endloop
 endfacet
 facet normal -7.071068e-01 -7.071068e-01  0.000000e+00
   outer loop
     vertex  4.277996e+02  4.065864e+02 -2.550000e+02
     vertex  4.277996e+02  4.065864e+02  2.550000e+02
     vertex  4.065864e+02  4.277996e+02  2.550000e+02
   endloop
 endfacet
 facet normal -7.071068e-01 -7.071068e-01  0.000000e+00
   outer loop
     vertex  4.277996e+02  4.065864e+02 -2.550000e+02
     vertex  4.065864e+02  4.277996e+02  2.550000e+02
     vertex  4.065864e+02  4.277996e+02 -2.550000e+02
   endloop
 endfacet
 facet normal  9.497475e-02  2.292893e-01  9.687137e-01
   outer loop
     vertex  1.803255e+02  3.961473e+02  3.700000e+02
     vertex  1.858457e+02  4.094743e+02  3.663044e+02
     vertex  1.581293e+02  4.209548e+02  3.663044e+02
   endloop
 endfacet
 facet normal  9.497475e-02  2.292893e-01  9.687137e-01
   outer loop
     vertex  1.803255e+02  3.961473e+02  3.700000e+02
     vertex  1.581293e+02  4.209548e+02  3.663044e+02
     vertex  1.526091e+02  4.076278e+02  3.700000e+02
   endloop
 endfacet
 facet normal  1.840067e-01  4.442314e-01  8.768124e-01
   outer loop
     vertex  1.581293e+02  4.209548e+02  3.663044e+02
     vertex  2.451616e+02  5.526756e+02  2.813044e+02
     vertex  2.174452e+02  5.641561e+02  2.813044e+02
   endloop
 endfacet
 facet normal  1.840067e-01  4.442314e-01  8.768124e-01
   outer loop
     vertex  1.858457e+02  4.094743e+02  3.663044e+02
     vertex  2.451616e+02  5.526756e+02  2.813044e+02
     vertex  1.581293e+02  4.209548e+02  3.663044e+02
   endloop
 endfacet
 facet normal  3.292893e-01  7.949747e-01  5.094936e-01
   outer loop
     vertex  2.174452e+02  5.641561e+02  2.813044e+02
     vertex  2.511219e+02  5.670651e+02  2.550000e+02
     vertex  2.234055e+02  5.785456e+02  2.550000e+02
   endloop
 endfacet
 facet normal  3.292893e-01  7.949747e-01  5.094936e-01
   outer loop
     vertex  2.451616e+02  5.526756e+02  2.813044e+02
     vertex  2.511219e+02  5.670651e+02  2.550000e+02
     vertex  2.174452e+02  5.641561e+02  2.813044e+02
   endloop
 endfacet
 facet normal  3.826834e-01  9.238795e-01  0.000000e+00
   outer loop
     vertex  2.511219e+02  5.670651e+02  2.550000e+02
     vertex  2.511219e+02  5.670651e+02 -2.550000e+02
     vertex  2.234055e+02  5.785456e+02 -2.550000e+02
   endloop
 endfacet
 facet normal  3.826834e-01  9.238795e-01  0.000000e+00
   outer loop
     vertex  2.511219e+02  5.670651e+02  2.550000e+02
     vertex  2.234055e+02  5.785456e+02 -2.550000e+02
     vertex  2.234055e+02  5.785456e+02  2.550000e+02
   endloop
 endfacet
 facet normal  3.292893e-01  7.949747e-01 -5.094936e-01
   outer loop
     vertex  2.511219e+02  5.670651e+02 -2.550000e+02
     vertex  2.451616e+02  5.526756e+02 -2.813044e+02
     vertex  2.174452e+02  5.641561e+02 -2.813044e+02
   endloop
 endfacet
 facet normal  3.292893e-01  7.949747e-01 -5.094936e-01
   outer loop
     vertex  2.511219e+02  5.670651e+02 -2.550000e+02
     vertex  2.174452e+02  5.641561e+02 -2.813044e+02
     vertex  2.234055e+02  5.785456e+02 -2.550000e+02
   endloop
 endfacet
 facet normal  1.840067e-01  4.442314e-01 -8.768124e-01
   outer loop
     vertex  2.174452e+02  5.641561e+02 -2.813044e+02
     vertex  1.858457e+02  4.094743e+02 -3.663044e+02
     vertex  1.581293e+02  4.209548e+02 -3.663044e+02
   endloop
 endfacet
 facet normal  1.840067e-01  4.442314e-01 -8.768124e-01
   outer loop
     vertex  2.451616e+02  5.526756e+02 -2.813044e+02
     vertex  1.858457e+02  4.094743e+02 -3.663044e+02
     vertex  2.174452e+02  5.641561e+02 -2.813044e+02
   endloop
 endfacet
 facet normal  9.497475e-02  2.292893e-01 -9.687137e-01
   outer loop
     vertex  1.803255e+02  3.961473e+02 -3.700000e+02
     vertex  1.526091e+02  4.076278e+02 -3.700000e+02
     vertex  1.581293e+02  4.209548e+02 -3.663044e+02
   endloop
 endfacet
 facet normal  9.497475e-02  2.292893e-01 -9.687137e-01
   outer loop
     vertex  1.858457e+02  4.094743e+02 -3.663044e+02
     vertex  1.803255e+02  3.961473e+02 -3.700000e+02
     vertex  1.581293e+02  4.209548e+02 -3.663044e+02
   endloop
 endfacet
 facet normal -1.840067e-01 -4.442314e-01  8.768124e-01
   outer loop
     vertex  1.526091e+02  4.076278e+02 -3.400000e+02
     vertex  2.396414e+02  5.393487e+02 -2.550000e+02
     vertex  2.119250e+02  5.508292e+02 -2.550000e+02
   endloop
 endfacet
 facet normal -1.840067e-01 -4.442314e-01  8.768124e-01
   outer loop
     vertex  1.803255e+02  3.961473e+02 -3.400000e+02
     vertex  2.396414e+02  5.393487e+02 -2.550000e+02
     vertex  1.526091e+02  4.076278e+02 -3.400000e+02
   endloop
 endfacet
 facet normal -3.826834e-01 -9.238795e-01  0.000000e+00
   outer loop
     vertex  2.396414e+02  5.393487e+02 -2.550000e+02
     vertex  2.396414e+02  5.393487e+02  2.550000e+02
     vertex  2.119250e+02  5.508292e+02  2.550000e+02
   endloop
 endfacet
 facet normal -3.826834e-01 -9.238795e-01  0.000000e+00
   outer loop
     vertex  2.396414e+02  5.393487e+02 -2.550000e+02
     vertex  2.119250e+02  5.508292e+02  2.550000e+02
     vertex  2.119250e+02  5.508292e+02 -2.550000e+02
   endloop
 endfacet
 facet normal  0.000000e+00  2.481810e-01  9.687137e-01
   outer loop
     vertex  1.500000e+01  4.350000e+02  3.700000e+02
     vertex  1.500000e+01  4.494250e+02  3.663044e+02
     vertex  4.973799e-14  4.494250e+02  3.663044e+02
   endloop
 endfacet
 facet normal  0.000000e+00  2.481810e-01  9.687137e-01
   outer loop
     vertex  1.500000e+01  4.350000e+02  3.700000e+02
     vertex  4.973799e-14  4.494250e+02  3.663044e+02
     vertex  4.796163e-14  4.350000e+02  3.700000e+02
   endloop
 endfacet
 facet normal  0.000000e+00  4.808326e-01  8.768124e-01
   outer loop
     vertex  4.973799e-14  4.494250e+02  3.663044e+02
     vertex  1.500000e+01  6.044250e+02  2.813044e+02
     vertex  6.750156e-14  6.044250e+02  2.813044e+02
   endloop
 endfacet
 facet normal  0.000000e+00  4.808326e-01  8.768124e-01
   outer loop
     vertex  1.500000e+01  4.494250e+02  3.663044e+02
     vertex  1.500000e+01  6.044250e+02  2.813044e+02
     vertex  4.973799e-14  4.494250e+02  3.663044e+02
   endloop
 endfacet
 facet normal  0.000000e+00  8.604745e-01  5.094936e-01
   outer loop
     vertex  1.500000e+01  6.044250e+02  2.813044e+02
     vertex  1.500000e+01  6.200000e+02  2.550000e+02
     vertex  6.927792e-14  6.200000e+02  2.550000e+02
   endloop
 endfacet
 facet normal  0.000000e+00  8.604745e-01  5.094936e-01
   outer loop
     vertex  1.500000e+01  6.044250e+02  2.813044e+02
     vertex  6.927792e-14  6.200000e+02  2.550000e+02
     vertex  6.750156e-14  6.044250e+02  2.813044e+02
   endloop
 endfacet
 facet normal  0.000000e+00  1.000000e+00  0.000000e+00
   outer loop
     vertex  1.500000e+01  6.200000e+02  2.550000e+02
     vertex  1.500000e+01  6.200000e+02 -2.550000e+02
     vertex  6.927792e-14  6.200000e+02 -2.550000e+02
   endloop
 endfacet
 facet normal  0.000000e+00  1.000000e+00  0.000000e+00
   outer loop
     vertex  1.500000e+01  6.200000e+02  2.550000e+02
     vertex  6.927792e-14  6.200000e+02 -2.550000e+02
     vertex  6.927792e-14  6.200000e+02  2.550000e+02
   endloop
 endfacet
 facet normal  0.000000e+00  8.604745e-01 -5.094936e-01
   outer loop
     vertex  1.500000e+01  6.200000e+02 -2.550000e+02
     vertex  1.500000e+01  6.044250e+02 -2.813044e+02
     vertex  6.750156e-14  6.044250e+02 -2.813044e+02
   endloop
 endfacet
 facet normal  0.000000e+00  8.604745e-01 -5.094936e-01
   outer loop
     vertex  1.500000e+01  6.200000e+02 -2.550000e+02
     vertex  6.750156e-14  6.044250e+02 -2.813044e+02
     vertex  6.927792e-14  6.200000e+02 -2.550000e+02
   endloop
 endfacet
 facet normal  0.000000e+00  4.808326e-01 -8.768124e-01
   outer loop
     vertex  6.750156e-14  6.044250e+02 -2.813044e+02
     vertex  1.500000e+01  4.494250e+02 -3.663044e+02
     vertex  4.973799e-14  4.494250e+02 -3.663044e+02
   endloop
 endfacet
 facet normal  0.000000e+00  4.808326e-01 -8.768124e-01
   outer loop
     vertex  1.500000e+01  6.044250e+02 -2.813044e+02
     vertex  1.500000e+01  4.494250e+02 -3.663044e+02
     vertex  6.750156e-14  6.044250e+02 -2.813044e+02
   endloop
 endfacet
 facet normal  0.000000e+00  2.481810e-01 -9.687137e-01
   outer loop
     vertex  1.500000e+01  4.350000e+02 -3.700000e+02
     vertex  4.796163e-14  4.350000e+02 -3.700000e+02
     vertex  4.973799e-14  4.494250e+02 -3.663044e+02
   endloop
 endfacet
 facet normal  0.000000e+00  2.481810e-01 -9.687137e-01
   outer loop
     vertex  1.500000e+01  4.494250e+02 -3.663044e+02
     vertex  1.500000e+01  4.350000e+02 -3.700000e+02
     vertex  4.973799e-14  4.494250e+02 -3.663044e+02
   endloop
 endfacet
 facet normal  0.000000e+00 -4.808326e-01  8.768124e-01
   outer loop
     vertex  1.500000e+01  4.350000e+02 -3.400000e+02
     vertex  1.500000e+01  5.900000e+02 -2.550000e+02
     vertex  6.572520e-14  5.900000e+02 -2.550000e+02
   endloop
 endfacet
 facet normal  0.000000e+00 -4.808326e-01  8.768124e-01
   outer loop
     vertex  1.500000e+01  4.350000e+02 -3.400000e+02
     vertex  6.572520e-14  5.900000e+02 -2.550000e+02
     vertex  4.796163e-14  4.350000e+02 -3.400000e+02
   endloop
 endfacet
 facet normal  0.000000e+00 -1.000000e+00  0.000000e+00
   outer loop
     vertex  1.500000e+01  5.900000e+02 -2.550000e+02
     vertex  1.500000e+01  5.900000e+02  2.550000e+02
     vertex  6.572520e-14  5.900000e+02  2.550000e+02
   endloop
 endfacet
 facet normal  0.000000e+00 -1.000000e+00  0.000000e+00
   outer loop
     vertex  1.500000e+01  5.900000e+02 -2.550000e+02
     vertex  6.572520e-14  5.900000e+02  2.550000e+02
     vertex  6.572520e-14  5.900000e+02 -2.550000e+02
   endloop
 endfacet
 facet normal  0.000000e+00 -1.000000e+00  0.000000e+00
   outer loop
     vertex  3.552714e-15  3.000000e+01 -3.700000e+02
     vertex  5.967371e+00  3.000000e+01 -3.400000e+02
     vertex  3.552714e-15  3.000000e+01 -3.400000e+02
   endloop
 endfacet
 facet normal  0.000000e+00 -1.000000e+00  0.000000e+00
   outer loop
     vertex  5.967371e+00  3.000000e+01 -3.700000e+02
     vertex  5.967371e+00  3.000000e+01 -3.400000e+02
     vertex  3.552714e-15  3.000000e+01 -3.700000e+02
   endloop
 endfacet
 facet normal -1.000000e+00  0.000000e+00  0.000000e+00
   outer loop
     vertex  3.000000e+01 -1.065814e-14 -3.700000e+02
     vertex  3.000000e+01 -1.065814e-14 -3.400000e+02
     vertex  3.000000e+01  5.967371e+00 -3.400000e+02
   endloop
 endfacet
 facet normal -1.000000e+00  0.000000e+00  0.000000e+00
   outer loop
     vertex  3.000000e+01 -1.065814e-14 -3.700000e+02
     vertex  3.000000e+01  5.967371e+00 -3.400000e+02
     vertex  3.000000e+01  5.967371e+00 -3.700000e+02
   endloop
 endfacet
 facet normal -3.826834e-01 -9.238795e-01  0.000000e+00
   outer loop
     vertex  5.967371e+00  3.000000e+01 -3.700000e+02
     vertex  1.699363e+01  2.543277e+01 -3.400000e+02
     vertex  5.967371e+00  3.000000e+01 -3.400000e+02
   endloop
 endfacet
 facet normal -3.826834e-01 -9.238795e-01  0.000000e+00
   outer loop
     vertex  1.699363e+01  2.543277e+01 -3.700000e+02
     vertex  1.699363e+01  2.543277e+01 -3.400000e+02
     vertex  5.967371e+00  3.000000e+01 -3.700000e+02
   endloop
 endfacet
 facet normal -7.071068e-01 -7.071068e-01  0.000000e+00
   outer loop
     vertex  2.543277e+01  1.699363e+01 -3.700000e+02
     vertex  2.543277e+01  1.699363e+01 -3.400000e+02
     vertex  1.699363e+01  2.543277e+01 -3.400000e+02
   endloop
 endfacet
 facet normal -7.071068e-01 -7.071068e-01  0.000000e+00
   outer loop
     vertex  2.543277e+01  1.699363e+01 -3.700000e+02
     vertex  1.699363e+01  2.543277e+01 -3.400000e+02
     vertex  1.699363e+01  2.543277e+01 -3.700000e+02
   endloop
 endfacet
 facet normal -9.238795e-01 -3.826834e-01  0.000000e+00
   outer loop
     vertex  3.000000e+01  5.967371e+00 -3.700000e+02
     vertex  3.000000e+01  5.967371e+00 -3.400000e+02
     vertex  2.543277e+01  1.699363e+01 -3.400000e+02
   endloop
 endfacet
 facet normal -9.238795e-01 -3.826834e-01  0.000000e+00
   outer loop
     vertex  3.000000e+01  5.967371e+00 -3.700000e+02
     vertex  2.543277e+01  1.699363e+01 -3.400000e+02
     vertex  2.543277e+01  1.699363e+01 -3.700000e+02
   endloop
 endfacet
endsolid
